<svg version="1" xmlns="http://www.w3.org/2000/svg" width="2730.667" height="2730.667" viewBox="0 0 2048.000000 2048.000000"><path d="M342 1024v1024h1365V0H342v1024zm702.5-842.5c9.8.5 38.3 2.1 54 3.1 16 .9 51.9 4.3 63 5.9 1.7.2 6.4.7 10.5 1.1 9.1.7 11.6 1 15.5 1.8 5.4 1 22.9 3.8 26.5 4.3 9.5 1.1 15.2 2.5 24 6 4.6 1.8 9 3.3 9.7 3.3.6 0 1.9.8 2.9 1.7 1 1 2 1.8 2.4 1.8.3 0 1.6 1 3 2.2 1.3 1.3 2.9 2.3 3.6 2.3 1 0 1.6 1.2 2.8 5 .1.3.5 1.1.9 1.7.5.7.6 1.7.2 2.2-.6 1.1 1.5 6.1 2.7 6.1.4 0 .8 1.5.9 3.2 0 2.9.2 3 1 1.3s.9-1.6.6.7c-.3 1.6-.1 2.8.4 2.8.4 0 .8.8.8 1.7 0 1 .3 6.4.5 12 .4 8 .2 10.3-.8 10.3-1.5 0-3.9 4.7-3 6.1.8 1.4-1.6 7-2.7 6.3-.5-.3-.9.2-.9 1 0 .9.5 1.6 1.1 1.6.8 0 .8.4.1 1.2-1 1.3-2.8 10.1-2.5 12.5 0 .7-.4 1-1 .6-.7-.4-.8 0-.4 1.2.4.9.2 2.4-.4 3.1-.6.8-.7 1.4-.2 1.4.5 0 1 1.3 1.1 3 .2 2.1-.2 3-1.3 3-.8 0-1.5.2-1.5.4s-.3 1.3-.6 2.3c-.5 1.5-.4 1.5.5.3.6-.9 1.1-1 1.1-.3 0 .6-.7 1.9-1.6 2.7-.8.9-1.1 1.6-.6 1.6.5 0 .8 1 .7 2.2-.1 1.3-.3 3.2-.4 4.3l-.2 2-.9-2c-.7-1.7-.9-1.7-.9-.3-.1 1-.5 1.8-1.1 1.8-.5 0-.7.6-.4 1.4.3.8.1 1.7-.5 2.1-.6.3-1.1 1.1-1.1 1.7 0 .7.6.6 1.5-.2s1.5-.9 1.5-.2c0 .6-.4 1.4-1 1.7-.5.3-1 1.1-1 1.6 0 .6.5.7 1 .4 1.3-.8 1.3-.3-.2 3.2-.6 1.5-1 3.2-.9 3.7.1.4-.4 1.4-1 2.2-1 1.2-.9 1.3.4.8 1.3-.4 1.5.1 1.4 2.9-.1 2.3-.6 3.3-1.4 3-.7-.3-1-.9-.7-1.4.3-.5-.2-.6-1.1-.3-1.4.6-1.4.8.2 1.9 1.5 1.1 1.6 1.5.3 3.1-1.4 1.6-1.3 1.6 1 .4 2.1-1 2.3-1 1.3.1-1.5 1.6-1.7 3.3-.3 2.4.6-.3 1-.4 1 0 0 .3-1 1-2.2 1.5-2.2.8-2.2.9.5.9 1.9.1 2.7.5 2.4 1.3-.2.7-1 1.2-1.6 1-.7-.1-1 .2-.7.7.4.5.1 1.3-.5 1.7-.8.4-.3 1.1 1.2 2l2.4 1.2-2.8.7c-3.2.8-3.5 2.1-.7 2.8 1.4.3 1.8 1 1.4 2.2-.4.9-1.3 1.4-2 1.1-.8-.3-1.4-.1-1.4.5s.9 1.3 1.9 1.6c1.4.4 1.9 1.2 1.7 3.1-.2 1.5.2 3 .8 3.4.8.5.7.8-.2.8-.7 0-1 .5-.6 1.1.3.6 0 1.5-.7 2-1.2.7-1.2.9 0 .9 1 0 1.1.3.2 1.4-1 1.1-.8 1.7.6 2.5 1.7 1 1.7 1-.2 1.1l-2 .1 2 .9c1.1.5 1.5.9 1 .9-.6.1-.9 2.1-.6 4.7.2 3.2.6 4.2 1.2 3.3.6-.9.9-1 .9-.2 0 .6-.4 1.5-1 1.8-.5.3-1 1.7-1 3.1 0 1.7-.4 2.3-1.2 1.9-.7-.4-.5 0 .5.8.9.8 1.7 2.2 1.7 3.1 0 1 .5 1.4 1 1.1 1.6-1 1.2 1.2-.6 3-1.1 1-1.4 2.4-1 4.1.5 1.9.3 2.4-.6 1.9-.7-.4-.6-.1.3.7 1.6 1.3 1.9 1.9 1.9 3.8 0 .5.7.7 1.5.4 1.2-.5 2.8 2.5 3 5.8 0 .3.4 1 .9 1.5s.6.3.2-.5c-.4-.6-.4-1.2.1-1.2 1.3.1 4.3 4.7 4.6 7.2.2 2.4 4.5 6.1 6 5.1.4-.3 1.1.4 1.4 1.6.3 1.1.9 1.8 1.4 1.5.5-.3.9.4.9 1.5 0 1.2.7 2.1 1.6 2.1.8 0 1.3.3 1.1.7-.3.5 1.1 1.8 3 3 1.9 1.3 3.1 1.8 2.8 1.3-.3-.6.1-1 1-1 1.1 0 1.5.5 1.1 1.6-.3.8-.2 1.3.3 1 .5-.3 2.5.5 4.4 1.8 2 1.4 3.4 1.9 3.1 1.2-.3-.7.4-1.2 1.6-1.2 1.2 0 1.9.5 1.6 1.3-.4.9 0 1 2 .1 1.8-.9 2.7-.9 3.6 0 .9.9.7 1.2-.9 1.2-1.2 0-2.4.4-2.7.9-.3.5.9.8 2.7.6 1.7-.1 4 .5 5 1.4 1.6 1.4 1.7 1.3 1.1-.5-.7-1.8-.6-1.8 1.3.1 1.1 1.1 1.9 2.3 1.7 2.7-.3.3 1.2.5 3.2.2 2.5-.3 3.3-.1 2.8.7-.5.9.1 1 2.2.5 2.8-.7 2.8-.7.9.8-1.4 1.2-1.5 1.4-.4 1 1-.3 2 0 2.4.6.5.8 1.1.8 2.1-.1 1.1-.9 1.6-.6 2.3 1.2.6 1.4 1 1.8 1.1.9.1-.9.5-.6 1 .8.5 1.2 1.8 2.5 2.7 2.9 1 .4 2.7 1.5 3.7 2.5 1 .9 2.4 1.5 2.9 1.1.6-.3 1.6.2 2.4 1.2.9 1.4 1.3 1.5 1.3.4.1-1 .3-.9 1.1.3.5 1 1.5 1.8 2 1.8 1.5 0 3.9 2.6 3.2 3.4-.7.6 1.2 1 3.6.7.8-.2 1 .2.5 1.1-.6 1.1-.5 1.1.8 0 1.1-.9 1.8-1 2.3-.2.4.6 1.5.8 2.6.5 1.1-.4 1.9-.2 1.9.5 0 .6.8 1 1.8.8 1.1-.2 1.7.3 1.6 1.4-.1 1 .2 1.5.7 1.2.5-.3 1.5-.2 2.1.2 1.6 1 4.4 1.6 9 1.7 2 .1 3.4.5 3.1 1-.3.5.4.6 1.7.2 1.5-.5 2-.4 1.6.4-.5.7-.1.9.8.5.9-.3 1.6-.1 1.6.6s.8.9 2.1.5c1.6-.5 1.9-.4 1.4.6-.6.9-.3 1.1.8.6 1-.4 1.7-.1 1.8.6 0 .7.4.3.9-.8.7-1.7.9-1.6.9.9.1 2.1.4 2.7 1.1 2 .8-.8 2.5-.8 5.6-.1 3.4.8 5.1.8 6.4-.1 2-1.2 5-.7 5 .9 0 .5-.6.9-1.2 1-.7 0-.2.5 1.1 1 1.4.5 4.1.9 6.1.7 2-.1 4.1.2 4.8.6.8.5 1.2 0 1.2-1.3 0-1.2.5-2.1 1-2.1.6 0 1 .4 1 .9s.9 1.3 2 1.6c1.1.3 2 1.3 2 2.1 0 1 .5 1.2 1.3.7 1.7-1.1 2.9-1.1 5-.1 1.3.7 1.7.4 1.7-1.2 0-2 .1-2 1.6-.6 1.8 1.9 2.8 2.1 1.8.4-.5-.8-.2-.9 1-.5 1 .4 1.5.3 1.1-.3-.6-1 1-1.5 3-1 .6.2 1.8.2 2.8.2 1.1-.1 2.3 1.1 3.1 2.9.7 1.6 1.5 2.6 1.9 2.2.4-.3.7-.1.7.6 0 .8.7 1 2 .6 1.2-.4 2-.2 2 .5 0 .6.5.8 1.2.4.8-.5.9-.2.4 1.1-.6 1.6-.4 1.6 1.1.4.9-.8 1.4-.9 1-.3-.4.7 0 1.7.8 2.4 1.3 1.1 1.4 1 .9-.6-.5-1.3 0-1 1.5.8 1.2 1.5 3.4 2.8 4.9 3 1.7.2 2.6.8 2.4 1.7-.2.9.4 1.2 1.7.8 1.4-.3 2.2.1 2.7 1.5.3 1.1 1.4 2.8 2.5 3.9 1.9 1.9 1.7 4.2-.8 6.7-1.6 1.6-4 2.2-12.8 2.8-3.8.3-9.2 1.1-12 1.9-9.3 2.6-51.1 3.2-261.8 4-86.5.3-137.4.8-138.6 1.4-1.7 1-1.9 4.1-2.6 54.3-.4 29.3-.8 54-1 54.8-.2.8-.6 18.6-.9 39.5-.9 51.4-2.1 86.2-3.2 92-.2 1.1-.7 4.9-1 8.5-.3 3.6-.7 8.5-1 11-.2 2.5-.7 10.8-1 18.5-1.4 31.7-1.5 35.2-1.9 39.5-.2 2.5-.7 13.7-1 25-.3 11.3-.9 23.2-1.2 26.5-.2 3.3-.6 16.1-.8 28.5-.2 12.4-.6 28.1-.9 35-.4 6.9-.8 17.4-1.1 23.4-.5 13.3-1.5 21.7-2.5 21.1-1.2-.7-1.5 5.7-.8 20.7.2 4.7.1 8.5-.2 8.3-.4-.2-.6 1-.6 2.8 0 1.8-.3 6.3-.7 10.2-.4 3.8-.9 10.8-1.2 15.5-.2 4.7-.7 11.2-.9 14.5-.6 6.9-1.2 22.5-4.1 103.5-.3 8-.8 18.3-1.2 23-.4 4.7-.7 16.4-.8 26v17.5l8 .8c4.4.4 16.2.6 26.2.5 9.9-.2 17.9 0 17.6.4-.2.5-4.8.8-10.2.8-16.3 0-46.9 1.4-42.6 2 2.2.3 9.6.2 16.5-.1 6.9-.3 17.5-.3 23.5.1 10.1.5 9.3.6-11.5 1.2-12.4.4-23.7 1-25.2 1.4-2.7.6-6.3 5.8-5.3 7.4.3.5.7 5.2.8 10.5.2 5.3.7 9.9 1.3 10.3 1.3 1 1.5 2.7 1.9 21.2.3 12 .8 17.5 1.9 20.2 2.3 5.4 2.1 15.5-.5 20.7-1.1 2.4-1.8 5.2-1.6 6.2.3 1.1.2 1.9-.2 1.9-.5 0-.9 6-1 13.2-.2 18.8-.9 24.6-3.2 25.9-1.6.8-1.9 2.2-1.9 8.4 0 4.2.5 7.7 1.1 8.1.6.4.8 2 .4 4-.3 1.9-.1 5.3.6 7.6.6 2.4 1.3 7.7 1.4 11.8.3 6.3.2 7.1-.8 5-1-2.2-1.2-1.8-1.7 4.5l-.5 7-.8-10c-2.4-32.4-2.9-40.5-2.4-41.9.3-.8.2-1.6-.4-1.8-.9-.3-2.4-24.2-2.1-32.8.3-5.7-2.6-41.7-3.6-45.5-.5-1.6-.7 19.4-.6 46.6.1 41.8 0 45.3-.6 22.9-.4-14.6-.8-38.4-1-53-.2-22.2-1.3-44.3-1.9-36.3 0 1.3-.6 2.3-1.2 2.3-.7 0-.9-1-.5-2.5.4-1.4.3-2.5-.2-2.5-.4 0-.6-3.2-.4-7.1.3-5 .1-7.4-.8-7.9-.8-.5-1-1.4-.5-2.6.9-2 1.1-3.1 1.4-7.6.1-2 .5-2.6 1.6-2.2 1 .4 1.5 0 1.5-1.4 0-1.2.5-2.4 1-2.7 2.2-1.3.8-3.3-2.7-4-3.5-.7-3.6-.8-1.3-1.5 3.8-1-13-2.2-30.5-2.1-9.6 0-14.3-.3-13-.9 1.1-.5 9.1-.9 17.8-.9 8.6-.1 15.7-.5 15.7-1s-7.6-.9-17-1c-10.7-.1-17 .3-17 .9 0 .6-1 1-2.2 1-1.8 0-2-.2-.9-.9s.9-1-1-1.3c-1.3-.2 8.8-.7 22.5-1.1 13.8-.4 25.5-1.2 26.1-1.7 1.2-1 2.9-24.1 2.3-32-.4-7 0-62.5.8-107.5 1.4-72.8 1-127.5-1-138-1.1-5.2-1.6-19-2.1-54-.7-50.2-1.4-89.3-2-113.5-1.4-55.2-1.6-58.7-2.9-60.8-.8-1.4-1.5-15.3-2.1-43.2-.3-14.6-.8-34.4-1-44-.3-9.6-.6-41.4-.7-70.5-.1-29.2-.5-53.7-.9-54.6-1.3-2.5-5.5-2.9-34.9-3.4-42.7-.7-103.8-1.7-111.5-2-3.8-.1-20.3-.5-36.5-.9-89-2-159.3-4.8-168-6.6-2.5-.5-7.3-1.1-10.7-1.5-7.6-.7-25-5.1-27.2-6.8-6.1-4.8-6.6-7.1-3.2-15.5 1.1-2.9 2.1-6.8 2.1-8.7 0-1.9.5-3.7 1.1-4.1.6-.3.8-1.7.5-2.9-.3-1.3-.1-2.7.4-3 .6-.4 1-1.4.8-2.3-.1-1 .4-2.7 1-4 .7-1.2 1.1-2.6.8-3-.3-.4-.1-1.4.4-2.2.5-.8.5-2.2-.1-3.2-.6-1.2-.6-1.8 0-1.8.5 0 1.3-2.1 1.7-4.8 1-7.1 1.2-8.1 2-9.4.5-.7.3-.8-.6-.3-1 .6-1.2.4-.6-1.1.4-1 1-2.6 1.3-3.4.4-1.3.4-1.3-.6 0-.7.9-1.1 1-1.1.3 0-.6.5-1.5 1.1-1.9.6-.3.8-1.7.5-3-.4-1.3-.1-3.3.6-4.5 1-1.7 1.1-2.3 0-2.6-.6-.3-.9-1-.5-1.6.3-.5.7-3 .8-5.3 0-2.4.4-4.6.8-5 .3-.4.2-1.5-.3-2.5-.7-1.2-.6-2 .2-2.5.7-.5.8-.3.3.6-.5.9-.4 1.1.3.6.9-.5.7-1.4-.4-3.2-1.3-1.9-1.4-2.4-.3-2.4 1 0 1.1-.3.3-.8-.9-.5-1.1-8.6-.7-29.7.5-32.2.6-33.5 1.3-33.5.3 0 .6-.9.6-2s-.3-2-.7-2c-.4 0-.5-1.2-.3-2.8.2-1.5.6-8.3.9-15.2.4-12.5 1-19.6 1.9-23.6 1.3-6.2 3-11.8 5.4-17.4.5-1.4 1.6-4.5 2.3-6.9.7-2.4 2-5.3 2.9-6.5.9-1.1 2.4-3.8 3.4-5.9.9-2 2.1-3.7 2.6-3.7.6 0 1-.6 1-1.3.1-1.8 8.9-11.9 15.5-17.5 2.1-1.7 3.4-3.2 2.9-3.2-.5-.1.5-.7 2.1-1.4 1.7-.8 4.3-2.5 6-3.9 1.6-1.5 4.2-3.2 5.7-3.8 1.5-.6 2.8-1.5 2.8-2s1-.9 2.3-.9c1.8 0 1.9-.2.7-1s-.9-1 1.3-1c1.5 0 2.7-.5 2.7-1.1 0-.5.4-.8.9-.4.5.3 1.2.1 1.6-.5.3-.5 1.5-1 2.6-1 1 0 1.9-.5 1.9-1.2 0-.9.3-.9 1.2 0 1.8 1.8 4.8 1.5 4.8-.6 0-1.4.2-1.5 1-.2.8 1.2 1 1.2 1 .1 0-.8.2-1.2.5-.9 1 .9 8.8-1.2 10.6-2.8 1-.9 1.9-1.1 2.3-.6.7 1.2 4.6.3 4.6-1 0-.6.7-.8 1.5-.4.8.3 1.5 0 1.5-.6s.3-.8.6-.5c.4.4 2-.5 3.7-1.9 2.3-1.9 3.2-2.2 4.3-1.3 1 .8 1.4.8 1.4 0 0-.6.3-1 .8-1 1.9.4 7.4-1.5 7.9-2.7.3-.8 1.1-1.4 1.9-1.4.7 0 3.3-1.4 5.7-3 2.5-1.7 5.6-3 7-3 1.4 0 3.3-.7 4.1-1.6.9-.8 1.6-1.2 1.6-.8 0 .3.7 0 1.7-.7.9-.8 2.6-1.4 3.7-1.5 1.2-.1 2.8-.4 3.6-.7.8-.3 4-1.1 7-1.7 3-.5 6.6-1.3 7.9-1.6 6.3-1.4 36.5-5.6 48.6-6.8 3.3-.3 8-.8 10.5-1 10.5-1.1 31.5-2.6 44-3.1 7.4-.4 17.3-.8 22-1 4.7-.2 17.7-.7 29-1.1 11.3-.3 20.7-.8 21-1.1.6-.6 80.9.4 95.5 1.2zM1269 267c0 .5-.5 1-1.1 1-.5 0-.7-.5-.4-1 .3-.6.8-1 1.1-1 .2 0 .4.4.4 1zm-13 88.4c0 .2-.7.7-1.6 1-.8.3-1.2.2-.9-.4.6-1 2.5-1.4 2.5-.6zm-335.2 905.3c-2.1.2-5.5.2-7.5 0-2.1-.2-.4-.4 3.7-.4 4.1 0 5.8.2 3.8.4zm163 1c-1 .2-2.8.2-4 0-1.3-.2-.5-.4 1.7-.4 2.2-.1 3.2.1 2.3.4zm-146.1.9c-.3.3-1.2.4-1.9.1-.8-.3-.5-.6.6-.6 1.1-.1 1.7.2 1.3.5zm-5.4 1.1c-.7.2-2.1.2-3 0-1-.3-.4-.5 1.2-.5 1.7 0 2.4.2 1.8.5zm68.2 48.8c.3 3.6 1.1 6.8 1.7 7.1 1.1.7 1 4.7-1.9 60.4-.8 16.8-1.5 37.6-1.4 46.3 0 10.2-.3 15.6-.9 15.2-.6-.3-1 .4-1.1 1.7-.1 2.3-.1 2.3-.8-.2-.4-1.4-.4-6.6 0-11.5 1.2-15.3 1.8-33.9.9-32.5-.5.8-.7 1.7-.4 2.1.2.4.1 1-.4 1.3-.7.4-2.8-9.8-3.7-17.8-.1-1.2-.3-2.3-.5-2.6-.1-.3-.2-2.8-.1-5.5.1-8.3-2.2-26.5-3.9-31.8-.6-1.7-.6-3.6-.1-4.5.5-1 1.1-7.7 1.4-15.1.3-7.3 1-13.8 1.5-14.3.6-.6 1.6-.3 2.6.7 1.5 1.5 1.6 1.5 1.6-.4 0-1.2.5-2.1 1-2.1.6 0 1-.7 1-1.5s.6-1.5 1.4-1.5c.9 0 1.6 2 2.1 6.5zm2.2.7c-.3.8-.6.5-.6-.6-.1-1.1.2-1.7.5-1.3.3.3.4 1.2.1 1.9zm45.7 10.3c-.4 2.7-1.3 13.8-2 24.5l-1.2 19.5.4-19.5c.6-25.8 1.4-35.3 2.6-32 .5 1.4.6 4.7.2 7.5zm96.8-2.8c.2 1 0 3.1-.6 4.8l-1 3-.7-2.7c-.8-3-.1-6.8 1.1-6.8.5 0 1 .8 1.2 1.7zm-297.5 3.5c-.3.7-.5.2-.5-1.2s.2-1.9.5-1.3c.2.7.2 1.9 0 2.5zm210.6 4.3c0 3.8-.2 11.7-.3 17.5-.3 9.9-.4 10.1-1.1 4.5-.4-3.8-.6-.7-.4 8.5l.4 14.5-1.4-14c-2.7-28.3-2.9-33.4-1.5-36.1.8-1.4 2-2.3 2.8-2.2 1.2.2 1.5 1.9 1.5 7.3zm31.1 25c-.7 16.5-1.3 35.8-1.3 43 0 19-1.9 74.6-2.5 75.3-.3.3-.6-.4-.6-1.6 0-1.2-.9-3-2-3.9-1.1-1-2-2.7-2-3.8 0-3.1-1.2-4.2-4.4-4.1-3.5.1-5.1-2.1-4.2-5.7.8-3.2 3.5-3.6 6-.8 1.5 1.6 2.2 1.8 3.6.9 1.6-1 1.8-2.2 1.3-9.7-.6-11.3.7-37.2 1.8-36.5.5.3.9-1.6.9-4.3 0-2.6.7-17.4 1.5-32.8.8-15.4 1.5-31.9 1.5-36.6 0-7.3.6-10.7 1.6-9.7.1.2-.4 13.8-1.2 30.3zm38.2 13.2c-.8 23.5-1.8 56.3-2.1 72.8-.4 16.5-.9 30.2-1.1 30.4-.2.2-.7.1-1.1-.3-.8-.8-.8-2.2.7-43.1.5-14.3 1.4-39.3 2-55.5 1.1-33 2-48.4 2.7-47.7.2.3-.2 19.8-1.1 43.4zm32.3-17.2c-.5 14.3-.7 26.6-.4 27.2.2.7 0 1.3-.6 1.3-.8 0-.9-6.7-.5-22.3.6-20.8 1.4-33.3 2.1-32.5.1.1-.1 12-.6 26.3zm-311.2-15.8c-.3 1-.5.2-.5-1.7s.2-2.7.5-1.8c.2 1 .2 2.6 0 3.5zm-10 3c-.3 1-.5.2-.5-1.7s.2-2.7.5-1.8c.2 1 .2 2.6 0 3.5zm211 34c-.1 6.5-.3 1.2-.3-11.7 0-12.9.2-18.2.3-11.8.2 6.5.2 17.1 0 23.5zm-85.2-25c-.3 4.3-.8 7.9-1 8.2-.6.5-.5-12.2.1-14.2 1.2-3.8 1.6-1.3.9 6zm-68.8-4.5c-.3.8-.6.5-.6-.6-.1-1.1.2-1.7.5-1.3.3.3.4 1.2.1 1.9zm-46 3.5c-.3 1-.5.2-.5-1.7s.2-2.7.5-1.8c.2 1 .2 2.6 0 3.5zm-23 6c-.3 1-.5.2-.5-1.7s.2-2.7.5-1.8c.2 1 .2 2.6 0 3.5zm12.3-.1c0 2-.2 2.3-1.3 1.2-.8-.7-1.2-2-.9-3 .6-2.5 2.2-1.2 2.2 1.8zm290.7 2.6c-.3.8-.6.5-.6-.6-.1-1.1.2-1.7.5-1.3.3.3.4 1.2.1 1.9zm-291 4c-.3.7-.5.2-.5-1.2s.2-1.9.5-1.3c.2.7.2 1.9 0 2.5zm128.2 2.3v2l-.9-2c-.5-1.1-.9-2.9-.9-4v-2l.9 2c.5 1.1.9 2.9.9 4zm219.8-.8c-.3 1-.5.4-.5-1.2 0-1.7.2-2.4.5-1.8.2.7.2 2.1 0 3zm-335.8 4.5c-.1 3.9-.2 4.1-.8 1.3-.4-1.7-.5-3.6-.3-4.3.8-2.3 1.2-1.2 1.1 3zm292.1.4c0 2.7-.4 4.3-1 3.9-.5-.3-1-2.4-1-4.6 0-2.1.5-3.9 1-3.9.6 0 1 2.1 1 4.6zm-303 18.9c1.2 12.8 1.7 39.5.8 39.5-.5 0-.8-1.9-.9-4.3 0-2.3-.4-6.2-.8-8.7-.8-4.4-.9-4.4-1.1-1l-.2 3.5-.7-3.5c-.6-3.2-.6-26.7-.1-40l.3-5.5.8 5c.5 2.7 1.3 9.5 1.9 15zm10.7-12.3c-.3.8-.6.5-.6-.6-.1-1.1.2-1.7.5-1.3.3.3.4 1.2.1 1.9zm278 31.5c-.1 6-.3 1.1-.3-10.7 0-11.8.2-16.7.3-10.8.2 6 .2 15.6 0 21.5zm14.2-17.3c.1 8.1-.3 13.7-.9 14.1-.6.4-1.1-1.1-1.1-3.7-.2-3.4-.3-3.7-.6-1.3-.6 4.3-2.3 5.6-2.3 1.8 0-1.6-.2-5.2-.5-7.9-.4-3.5-.3-4.3.4-2.9.5 1.1 1 1.5 1.1 1 .2-.6.6.3 1 2 .5 2 .8-.4.9-7.3.2-15.3 1.9-11.6 2 4.2zm-98.2-1.7c-.2 2.1-.4.4-.4-3.7 0-4.1.2-5.8.4-3.8.2 2.1.2 5.5 0 7.5zm143-4.5c-.2 1.3-.4.3-.4-2.2s.2-3.5.4-2.3c.2 1.3.2 3.3 0 4.5zm-335.8 4.3c0 3.1-.2 3.6-.9 2-1.3-2.9-1.3-9.4 0-7.5.5.8.9 3.3.9 5.5zm205.8 2.7c-.2 1.8-.4.6-.4-2.7 0-3.3.2-4.8.4-3.3s.2 4.2 0 6zm146-2c-.2 1.3-.4.3-.4-2.2s.2-3.5.4-2.3c.2 1.3.2 3.3 0 4.5zm-113 2c-.3.7-.5.2-.5-1.2s.2-1.9.5-1.3c.2.7.2 1.9 0 2.5zm-56.7 3.4c0 2.7-.4 4.3-1 3.9-1.1-.7-1.3-4.5-.4-6.9 1-2.6 1.4-1.8 1.4 3zm149.7-.4c-.3.8-.6.5-.6-.6-.1-1.1.2-1.7.5-1.3.3.3.4 1.2.1 1.9zm-286 8c-.2 1.8-.4.4-.4-3.2s.2-5 .4-3.3c.2 1.8.2 4.8 0 6.5zm144-1c-.2 1.8-.4.6-.4-2.7 0-3.3.2-4.8.4-3.3s.2 4.2 0 6zm-75 2.7c-.4 3.6-.3 5 .3 4.1.7-1.1 1-.3 1 2.6 0 6.4 1.2 13.4 2.2 13.4.5 0 .9-1.9.8-4.3-.3-5.9-.2-6 1.6-4.3 1.9 2 2.8 2 4.3.2.6-.7 2.2-1.1 3.5-.9 3.8.8 4.3 6.8 3.4 38.6-.2 9.1-.6 12-1.8 12.7-1 .7-1.1 1-.2 1 .7 0 1.2 1.3 1.2 3 0 2.4-.5 3.1-2.7 3.6-1.6.3-3.4.7-4.1 1-1.8.5-2.1-.6-3.1-12.1l-1-10 .5 12.2c.5 13.5-1 17.6-2 5.5-.4-4.2-1-10.6-1.5-14.2l-.8-6.5-.2 9c-.2 6.2-.5 8.2-1.1 6.5-.6-1.8-.8-.5-.8 4.5-.1 4.8.2 6.4.8 5 .7-1.6.9-1.3.9 1.5-.1 1.9-.3 3-.5 2.3-.3-.7-1.2-.9-2-.6-1.3.5-1.5-.6-1.4-6.3.1-3.8.1-7.4 0-7.9-.1-.6-.2-2.7-.2-4.8 0-2-.4-3.7-.9-3.7-1.2 0-.1-21.3 1.3-26.5.6-2.2 1-10.8 1-19-.2-11.5.1-14.6.9-13.1.7 1.1.9 4.1.6 7.5zm77-2.2c-.3 1-.5.2-.5-1.7s.2-2.7.5-1.8c.2 1 .2 2.6 0 3.5zm15 0c-.3 1-.5.2-.5-1.7s.2-2.7.5-1.8c.2 1 .2 2.6 0 3.5zm99.5 35.8c.3 20.9.2 34.4-.1 30l-.5-8-.6 8.5c-.5 7.1-.7 5.9-.8-7.6-.2-15.1.8-61.7 1.4-61.2.1.2.4 17.4.6 38.3zm-297.5-33.8c-.3 1-.5.4-.5-1.2 0-1.7.2-2.4.5-1.8.2.7.2 2.1 0 3zm103 3c-.3 1-.5.2-.5-1.7s.2-2.7.5-1.8c.2 1 .2 2.6 0 3.5zm223.5-2.2c.3 1.3.1 2.2-.3 1.9-.9-.5-1.3-4.4-.5-4.4.2 0 .6 1.1.8 2.5zm-326.5 7.7c-.2 1.3-.4.5-.4-1.7-.1-2.2.1-3.2.4-2.3.2 1 .2 2.8 0 4zm314.2 3.3c0 2.7-.6 6.3-1.4 8-1.3 2.9-1.3 2.7-1.4-4 0-3.9.2-8.1.6-9.3.9-3.7 2.3-.6 2.2 5.3zm-82.8 23.2c.8 8.7.9 13 .1 15.2-.7 1.9-.7 3.3-.1 3.6 1.3.9 1.1 6.5-.2 6.5-.7 0-.9 1.3-.5 3.7 1 5.2 1.6 14.4.8 11.3-.5-2.1-.7-1.7-1.2 2-.3 2.5-.9 4.3-1.5 4-1.2-.6-1.3-29.4-.3-50 .4-7.4.8-16.2.9-19.5.3-4.7.4-4.2.6 2.5.1 4.7.7 14 1.4 20.7zm-9.6-21.3c-.6 3.8-1 4.4-2.1 3.5-1.6-1.3-2-7.4-.4-6.4.6.3 1.3-.1 1.6-1 1.1-2.9 1.6-.8.9 3.9zm-39.4.8c.2 2.4.3 11.4.3 20-.1 8.7.2 15.8.7 15.8.5 0 .9-.8 1-1.8 0-1.4.2-1.4.9.3 1.3 2.9 1.2 10.9-.1 14.2l-1.2 2.8-.7-2.5c-.5-1.4-.9-4.3-.9-6.5-.1-2.2-.6-4.7-1.2-5.5-.8-1.1-.9 1.4-.6 9 .3 5.8.3 9.6 0 8.6-.4-1.4-.7-1.5-1.3-.6-.4.7-.5 2.1-.2 3.2.4 1.5.7 1.7 1.3.6.6-.9.9-.6.9 1 0 1.5-.5 2.2-1.2 2-2-.7-3.8 1.8-3.8 5.1 0 2.1.5 3.1 1.5 3.1.8 0 1.5-.7 1.5-1.7 0-3 .7-.8 1.4 4.2.5 4.1.4 4.7-.6 3.5-.7-.8-2.2-1.5-3.3-1.5-1.1 0-2.4-.9-3-2-.5-1.1-2.2-3.2-3.7-4.7-1.6-1.5-2.8-3.5-2.8-4.5 0-2 4.1-6.3 6-6.3 1 0 1-.3.1-1.4-.8-.9-1.1-4.5-1-9.8.1-4.6 0-10.3-.4-12.8-3-23.9-3.2-26.7-1.7-29 .8-1.3 1.3-1.1 3.5 1.2 1.4 1.5 2.5 3.7 2.5 4.8 0 3.6 2 1.1 2.7-3.3.6-3.8.7-4 1.5-1.7.5 1.6.6.5.4-3.3-.5-6.6.8-7 1.5-.5zm143.9-1.2c0 .5-.5 1-1.1 1-.5 0-.7-.5-.4-1 .3-.6.8-1 1.1-1 .2 0 .4.4.4 1zm-6.4 14.5c-.3 1.2-1.5 3.3-2.6 4.6l-1.9 2.4-.1-5.6c0-3 .8-7.8 1.7-10.5l1.7-4.9.9 5.9c.5 3.3.6 6.9.3 8.1zm-352-4.6c-.4 2.5-1 6.6-1.5 9.1l-.8 4.5-.3-4c-.3-5.7.1-15.8.7-16.9 1.2-2 2.5 3 1.9 7.3zm117.4-4.2c0 4.3-4.3 12.2-6.8 12.5-.9 0-2.4.1-3.2.2-1.2.1-1.6 2.7-2.2 13.6-.7 12.5-.6 13.8 1.3 18.6 2.4 5.7 2 8.4-1.1 8.4-1.6 0-2-.7-2.1-3.3-.1-1.7-.3-7.9-.5-13.7-.2-5.8-.4-11.6-.4-12.9 0-1.2-.3-2.8-.8-3.5-.4-.6-.7-6.1-.8-12.1 0-6.1.2-10.1.4-9 .8 3.4 3.6 6.2 6.2 6 1.3-.1 2.6-.7 2.8-1.3.1-.5 1.2-2 2.3-3.3 1-1.2 1.9-2.6 1.9-3.1 0-.4.7-.8 1.5-.8 1.1 0 1.5 1.1 1.5 3.7zm9 1.8c0 5.3-1.1 7.2-2.4 3.9-.8-2.1-.8-7.9.1-8.7 1.6-1.7 2.3-.3 2.3 4.8zm-93 7c.5-1.3 1 1.4 1.4 7.5.7 11.5 1.3 37.3.8 34.5-.2-1.1-.9-2.5-1.4-3.2-.5-.7-.6-1.8-.2-2.4.4-.7.3-.9-.3-.6-1.4.9-2.3-12.6-2.1-30.8.1-8.3.4-12.3.6-9 .3 4.2.6 5.4 1.2 4zm163.4-6.6c.3.5-.1 1.5-1 2.2-1.3 1-1.7 1-2.4-.1-.5-.8-.6-1.8-.4-2.2.7-1.1 3.1-1 3.8.1zm157.3 14.8c-.2 3.2-.3.8-.3-5.2 0-6.1.1-8.7.3-5.8.2 2.9.2 7.8 0 11zm-320-12.5c-.3.8-.6.5-.6-.6-.1-1.1.2-1.7.5-1.3.3.3.4 1.2.1 1.9zm62.4 7.8c.3 13.6.1 17.2-1.1 16.5-1.1-.7-1.3-14.7-.4-21.9.4-2.6.8-4.5 1-4.4.1.2.4 4.6.5 9.8zm-23.1 8.5c0 2.3-.6 4.7-1.2 5.3-1 1-1 1.5.1 2.1 1.9 1.2.6 4-1.8 3.8-1.7-.1-1.9-1-2.1-7.7-.3-10.3 0-18.2.7-19.4.9-1.4 4.2 11.1 4.3 15.9zm239.8-15.3c1.4 1.4 1.6 15.6.3 17.7-1.5 2.3-2.3-.6-2.9-10-.5-8.7 0-10.3 2.6-7.7zm-59.8 6.9c0 2.7-.4 4.9-1 4.9-.5 0-1-2.5-1-5.6 0-3.4.4-5.3 1-4.9.6.3 1 2.8 1 5.6zm15-4.4c0 1 .3 2.9.7 4.2.4 1.6.3 2.2-.5 1.7-.7-.4-1.2.7-1.5 3.1-.2 2.1-.4.5-.4-3.5 0-3.9.4-7.2.9-7.2.4 0 .8.8.8 1.7zm-88.8 20.5c-.1 11.1.3 21.9.7 24 .5 2.2.5 4 0 4.4-.5.3-.9 1.5-.9 2.7 0 1.8.2 2 1.1.7.9-1.2 1-1 .6.8s-.2 2.2.9 1.8c.8-.3 1.4.1 1.4.9s-.6 1.4-1.2 1.2c-.8-.1-1.3 1-1.4 2.8-.5 11.3-.4 11.1-1.6 9.1-.7-1.3-1-12.7-1-35.5.1-18.5.2-33.8.2-34 0-.2.3-.1.7.2.3.4.5 9.8.5 20.9zm-149.5-14.5c-.3 1-.5.2-.5-1.7s.2-2.7.5-1.8c.2 1 .2 2.6 0 3.5zm133.1 0c.3 1.9-.1 2.3-2.2 2.3s-2.6-.5-2.6-2.6.4-2.5 2.3-2.2c1.4.2 2.3 1.1 2.5 2.5zm33.3 2.4c.9 3 1 4.8.2 6.9-.6 1.6-.7 3.2-.2 3.7 1.1 1.1-.6 3.7-2 2.9-1.4-.9-1.5-17.6-.1-17.6.5 0 1.5 1.8 2.1 4.1zm-173.4.1c-.3.8-.6.5-.6-.6-.1-1.1.2-1.7.5-1.3.3.3.4 1.2.1 1.9zm52 2.5c-.3 1-.5.2-.5-1.7s.2-2.7.5-1.8c.2 1 .2 2.6 0 3.5zm194 0c-.3 1-.5.4-.5-1.2 0-1.7.2-2.4.5-1.8.2.7.2 2.1 0 3zm-239-.5c-.3.8-.6.5-.6-.6-.1-1.1.2-1.7.5-1.3.3.3.4 1.2.1 1.9zm97 1.5c-.3 1-.5.4-.5-1.2 0-1.7.2-2.4.5-1.8.2.7.2 2.1 0 3zm-40 1c-.3 1-.5.4-.5-1.2 0-1.7.2-2.4.5-1.8.2.7.2 2.1 0 3zm135.1 8.8c0 3.8-.4 8.1-.8 9.5-.5 1.5-.8-2.4-.8-10 0-7.7.3-11.4.8-9.5.4 1.6.8 6.1.8 10zm-59-10.6c.7.4 1.3 2.7 1.3 5.2.2 7.4.1 7.4-1.9 5.6-1-1-2.1-1.5-2.4-1.2-.2.3-.4-1.2-.2-3.2.1-2.1.2-4.6.3-5.6.1-1.9.9-2.1 2.9-.8zm109.9 7.3c-.2 1.8-.4.6-.4-2.7 0-3.3.2-4.8.4-3.3s.2 4.2 0 6zm-97.1-4.5c-1 1-1.9-.5-1-1.8.6-1.1.8-1.1 1.2 0 .2.7.1 1.5-.2 1.8zm123.4 17.5c-.8 2.8-.9 2.3-.5-3.1.3-3.5.6-8.9.7-12 .1-3.7.3-2.7.5 3.1.2 4.8-.1 10.2-.7 12zm-81.7-13.6c-.4 1-.9 1.2-1.5.6-1.2-1.2-.1-3.5 1.2-2.7.5.3.6 1.3.3 2.1zm136.4 3.1c-.3 1-.5.2-.5-1.7s.2-2.7.5-1.8c.2 1 .2 2.6 0 3.5zm-40.3-.6c-.6 1.1-2.4.2-2.4-1.1 0-.5.7-.7 1.5-.4.8.4 1.2 1 .9 1.5zm-283.7 2.1c-.3.7-.5.2-.5-1.2s.2-1.9.5-1.3c.2.7.2 1.9 0 2.5zm51.6-.7c-.7 1.9-4.3 2-4.3.1 0-.8.8-1.6 1.8-1.9 2.4-.5 3.2.1 2.5 1.8zm171.3 1.2c-1.1 1.1-1.9-.6-1.1-2.4.8-1.7.8-1.7 1.2 0 .3 1 .2 2.1-.1 2.4zm97.9-.7c.3.5-.1 1-.9 1-.9 0-1.6-.5-1.6-1 0-.6.4-1 .9-1 .6 0 1.3.4 1.6 1zm-76.8 4.7c-.3 1-.5.2-.5-1.7s.2-2.7.5-1.8c.2 1 .2 2.6 0 3.5zm-256-1.5c-.3.8-.6.5-.6-.6-.1-1.1.2-1.7.5-1.3.3.3.4 1.2.1 1.9zm364 5c-.2 1.3-.4.3-.4-2.2s.2-3.5.4-2.3c.2 1.3.2 3.3 0 4.5zm-285.9 6.3c-.1 4.7-.6 8.5-1 8.5s-.8-1.1-.8-2.4c0-3.4 1.2-14.6 1.6-14.6.2 0 .3 3.8.2 8.5zm72.9-4.8c-.3 1-.5.4-.5-1.2 0-1.7.2-2.4.5-1.8.2.7.2 2.1 0 3zm145.2 1.1c-.5 2.4-.7 4.7-.4 5.3.4.5.2.9-.3.9-1.8 0-2.3-6.2-.6-8.8 2.1-3.2 2.5-2.5 1.3 2.6zm-295.4-2.9c.3.5.1 1.2-.5 1.6-.5.3-1-.1-1-.9 0-1.8.6-2.1 1.5-.7zm335.2 9.8c-.2 2.1-.4.4-.4-3.7 0-4.1.2-5.8.4-3.8.2 2.1.2 5.5 0 7.5zm19-7.5c-.3.7-.5.2-.5-1.2s.2-1.9.5-1.3c.2.7.2 1.9 0 2.5zm-134.7.3c0 2.7-3.5 5.4-4.2 3.3-.9-2.5.4-5.8 2.3-5.8 1.4 0 1.9.7 1.9 2.5zm-241.3 8.7c-.2 1.8-.4.6-.4-2.7 0-3.3.2-4.8.4-3.3s.2 4.2 0 6zm42-6c-.3.8-.6.5-.6-.6-.1-1.1.2-1.7.5-1.3.3.3.4 1.2.1 1.9zm150.7 9.1c.3 5.9.8 11.2 1.2 11.8 1 1.7-.4 5.6-2.1 5.6-.9 0-1.1-.5-.6-1.1.4-.6 1-1.8 1.4-2.7.4-1.3 0-1.5-2-1.1-1.8.3-2.4.1-1.9-.7.4-.6 1.1-.9 1.6-.6.8.5 2.4-2.5 1.6-3.2-.2-.3-1.3 0-2.3.5-2 1-4.3.6-4.3-.9 0-.5 1.4-.9 3-.9 3.4 0 3.4.1 3-11.5-.3-11.1.9-7.1 1.4 4.8zm86.1-10.3c.3.5.1 1-.4 1-.6 0-1.1-.5-1.1-1 0-.6.2-1 .4-1 .3 0 .8.4 1.1 1zm-275.6 6.7c0 5.2-.2 6.2-.9 4.5-.9-2-.3-11.2.6-11.2.2 0 .4 3 .3 6.7zm70-5c.1-2.1 2.7-2.3 3.5-.1.3.9.6 3.6.6 6 0 4.7-2.3 6.3-3.5 2.4-.3-1.1-1.1-2-1.6-2s-.9-1.9-.8-4.3c0-3.2.2-3.7.9-2.2.7 1.7.9 1.7.9.2zm239.5 3.5c.5 3.2.4 4.8-.3 4.8s-1.1-2.2-1.1-5.2c0-6.2.5-6 1.4.4zm-225.4 1.1v5.3l-4.5.3-4.5.2v-4c0-6.1.7-7.1 5.1-7.1h3.9v5.3zm-53 1.9c0 .5-.4.8-1 .8-.5 0-1-1-1-2.3 0-1.8.2-1.9 1-.7.5.8 1 1.8 1 2.2zm243.7-1c-.3.8-.6.5-.6-.6-.1-1.1.2-1.7.5-1.3.3.3.4 1.2.1 1.9zm-53 4.5c-.3 1-.5.2-.5-1.7s.2-2.7.5-1.8c.2 1 .2 2.6 0 3.5zm-3.7 1.4c0 .3-.7 1.2-1.5 1.9s-1.5.9-1.5.5c0-.5-.9 0-2 1-2.8 2.5-2.5 1.1.4-2 1.4-1.5 2.3-3.4 2-4.3-.5-1.3-.2-1.3 1 .2.9 1.1 1.6 2.3 1.6 2.7zm80.7-.9c-.3.7-.5.2-.5-1.2s.2-1.9.5-1.3c.2.7.2 1.9 0 2.5zm-264.2 4.4l-1.5 2.9v-2.8c0-1.5.6-3.4 1.3-4.1 1.9-2.1 2.1.5.2 4zm209.4-3.2c.9 1.1.7 1.5-1.1 2-1.3.3-2.6.6-3 .6-1.3 0-.9-2.8.5-3.3 2-.9 2.4-.8 3.6.7zm12.4 2.5c-.4.3-1.1 1-1.5 1.5-.5.5-.8 0-.8-1.2 0-1.5.4-2 1.6-1.5.9.3 1.2.9.7 1.2zm-96.3.1c1.1.7.8 1-1.6 1-2.8 0-3 .2-2.6 3 .3 2.2 1 3 2.6 3 1.3.1-.3 1.3-4.2 3.2-7 3.4-8.2 3.1-8.2-2.5 0-1.6-.4-2.6-.9-2.3-.5.3-1.1-.8-1.3-2.4-.3-1.6 0-3.2.6-3.4 2.1-.9 14.1-.6 15.6.4zm60 5.2c0 2.2-.5 3.8-1.1 3.8-.7 0-.9-1-.7-2.5.4-2.1.3-2.3-1.3-1.4-1.6.8-1.9.6-1.8-1.8 0-2.5.1-2.6.9-.8.8 2 .9 2 .9-.1.2-5.6 3.1-3 3.1 2.8zm-123-3.8c0 .3-.4.8-1 1.1-.5.3-1 .1-1-.4 0-.6.5-1.1 1-1.1.6 0 1 .2 1 .4zm13.4 1.1c.3.9-.1 1.5-.9 1.5-1.5 0-2 1.6-1.6 5.7.3 3.4-1.3 2.8-2.7-1-2-5.5-1.6-7.2 1.7-7.4 1.8-.1 3.1.4 3.5 1.2zm135 .7c1.4 2.3-.3 5.2-3.3 5.6-2.4.4-2.8-1-.6-2.8 1.8-1.5 1.9-3.6.3-4.4-.7-.3-.4-.5.6-.3 1 .1 2.4 1 3 1.9zm49.6 1c0 1.6-.3 1.9-1.1 1.1-.6-.6-.8-1.6-.5-2.2 1.1-1.7 1.6-1.3 1.6 1.1zm-179 .8c0 .5-.2 1-.4 1-.3 0-.8-.5-1.1-1-.3-.6-.1-1 .4-1 .6 0 1.1.4 1.1 1zm13 1c-.6 1.1-1.5 2-2 2-1.4 0-1.2-2.7.3-3.3 2.3-1 2.8-.7 1.7 1.3zm-5.4 2.7c-1 1-1.9-.5-1-1.8.6-1.1.8-1.1 1.2 0 .2.7.1 1.5-.2 1.8zm43.1.5c-.3.7-.5.2-.5-1.2s.2-1.9.5-1.3c.2.7.2 1.9 0 2.5zm187 4.5c-.2 1.6-.4.3-.4-2.7s.2-4.3.4-2.8c.2 1.6.2 4 0 5.5zm-209-4.5c-.3.8-.6.5-.6-.6-.1-1.1.2-1.7.5-1.3.3.3.4 1.2.1 1.9zm-28.7.3c0 .8-.7 1.5-1.5 1.5s-1.5-.7-1.5-1.5.7-1.5 1.5-1.5 1.5.7 1.5 1.5zm115 .6c0 .5-1.2.9-2.6.9-2.2 0-2.4-.2-1.4-1.4 1.2-1.5 4-1.1 4 .5zm25.3 3.9c-1.1 4.9-2.3 4.4-2.3-1 0-4.9.1-5.2 1.4-3.4.9 1.1 1.2 2.9.9 4.4zm5.3 2.4c-1 8.7-2.8 7.6-3.2-2l-.3-6.6 2 1.8c1.8 1.6 2 2.7 1.5 6.8zm33.4-5c0 1.9-.4 3.8-1 4.1-.6.4-1-1-1-3.4 0-2.3.5-4.1 1-4.1.6 0 1 1.5 1 3.4zm32.7.3c-.3 1-.5.4-.5-1.2 0-1.7.2-2.4.5-1.8.2.7.2 2.1 0 3zm-64 1.5c-.3.7-.5.2-.5-1.2s.2-1.9.5-1.3c.2.7.2 1.9 0 2.5zm-125.8 1c0 2.8-.2 3-.9 1.3-1.2-2.8-1.2-4.5 0-4.5.6 0 1 1.5.9 3.2zm83.9-1.4c.2.7-.5 1.2-1.5 1.2-1.1 0-2.4.5-3.1 1.2-1.8 1.8-1.4-.3.5-2.4 1.8-2 3.4-2 4.1 0zm154.6 1.4c1.4 8.1 2.6 23.4 2.5 30.5-.2 11.4-1.6 4.5-1.8-8.5-.1-6.6-.6-11.5-1.6-13.9-1.7-4-2-11.3-.5-11.3.5 0 1.2 1.5 1.4 3.2zm-366.4.8c0 2.8-1.1 5.1-2.1 4.4-.5-.3-.9-2.1-.9-3.9 0-2.6.3-3.3 1.5-2.9.8.4 1.5 1.4 1.5 2.4zm91.8-.2c.6 1.8-1.5 1.4-2.2-.4-.4-1-.1-1.4.6-1.2.6.2 1.4 1 1.6 1.6zm7.7 1.1c.3.5.1 1.2-.4 1.5-.5.3-1.1-.1-1.5-.9-.6-1.6.9-2.1 1.9-.6zm82.6 7.6c.5-1.4.8-1.6.8-.4.1 1.1 1.2 1.6 4.3 1.7 6 .3 6.1 1.2.1 1.2-4 0-5.2.4-5.5 1.7-.4 1.6.1 1.8 3.9 1.4 2.7-.2 4.3.1 4.3.8 0 .6-1.9 1.1-4.2 1.1-2.4.1-6.3.5-8.7.9-3 .6-5.1.5-6.5-.3l-2.4-1.2c-.1-.1.1-.9.4-1.9.7-1.7.8-1.6 1.5.3.7 1.8 1.6 2.2 5.3 2.2 4.8 0 5.8-1.1 5.2-5.8-.2-1.5-.1-2 .2-1.2.4 1.2.6 1.1 1.3-.5zm106.6 2.7c-.3.8-.6.5-.6-.6-.1-1.1.2-1.7.5-1.3.3.3.4 1.2.1 1.9zm67.3 5.2c0 6.4-.6 5.6-1.4-1.9-.5-4.2-.4-5.6.3-4.5.6.8 1.1 3.7 1.1 6.4zm-71.8-4.2c-.7.7-1.2.8-1.2.2 0-1.4 1.2-2.6 1.9-1.9.2.3-.1 1.1-.7 1.7zm-257.7-.2c.3.5-.1 1-.9 1-.9 0-1.6-.5-1.6-1 0-.6.4-1 .9-1 .6 0 1.3.4 1.6 1zm124.8-.3c-1.3.2-3.5.2-5 0-1.6-.2-.5-.4 2.2-.4 2.8 0 4 .2 2.8.4zm93.7.7c0 1.9-2.2 2.6-8.2 2.6-4.5 0-4.9-.2-3.7-1.6.9-1.1 2.6-1.5 5.6-1.2 2.4.2 4.3 0 4.3-.4 0-.5.5-.8 1-.8.6 0 1 .6 1 1.4zm-249.3 8.8c-.2 1.8-.4.4-.4-3.2s.2-5 .4-3.3c.2 1.8.2 4.8 0 6.5zm61.1-7.2c.7 0 1.1.4.8.8-.7 1.2-6.6.2-6.6-1 0-.6 1-.8 2.3-.4 1.2.3 2.8.6 3.5.6zm69.7 1.6c-1 .8-2 1.2-2.3 1-.7-.8 2.3-3.4 3.2-2.8.5.3.1 1.1-.9 1.8zm30-1.6c.3.6-.1.7-.9.4-1.8-.7-2.1-1.4-.7-1.4.6 0 1.3.4 1.6 1zm53 .9c-.3.6-1.4 1.1-2.3 1.1-1.3 0-1.3-.2.4-1.4 2.1-1.5 3-1.4 1.9.3zm-139.7.5c.3.3-1.8.6-4.6.6s-5.3-.3-5.6-.8c-.5-.9 9.3-.6 10.2.2zm16.2-.5c0 1.2-2.8 2.2-3.4 1.2-.3-.5-.3-1.1.1-1.5.9-.9 3.3-.7 3.3.3zm26.7.5c.3.3-5.2.5-12.3.5-8.7-.1-11.8-.4-9.4-.9 4-.9 20.7-.6 21.7.4zm41.3-.4c1.1.7-.1.9-4 .9-4.2-.1-4.9-.3-3-.9 3.5-1.1 5.3-1.1 7 0zm126.8-.3c-1 .2-2.6.2-3.5 0-1-.3-.2-.5 1.7-.5s2.7.2 1.8.5zm50.9 4c-.3 1-.5.2-.5-1.7s.2-2.7.5-1.8c.2 1 .2 2.6 0 3.5zM913 1506c0 .5-.2 1-.4 1-.3 0-.8-.5-1.1-1-.3-.6-.1-1 .4-1 .6 0 1.1.4 1.1 1zm7 0c0 .5-.7 1-1.5 1s-1.5-.5-1.5-1c0-.6.7-1 1.5-1s1.5.4 1.5 1zm39.3 1.3c-1.8.5-4 .6-5 .1-1.4-.6-.9-.9 2.2-1.4 5.1-.8 7 .1 2.8 1.3zm42.7-1.3c0 .5-1.2 1-2.7 1-2.2 0-2.5-.2-1.3-1 2-1.3 4-1.3 4 0zm36.3-.3c-1.3.2-3.5.2-5 0-1.6-.2-.5-.4 2.2-.4 2.8 0 4 .2 2.8.4zm17.7.9c0 .2-.7.4-1.5.4s-1.5-.4-1.5-1c0-.5.7-.7 1.5-.4.8.4 1.5.8 1.5 1zm7.7 0c-.3.3-1.2.4-1.9.1-.8-.3-.5-.6.6-.6 1.1-.1 1.7.2 1.3.5zm139.3 29.8c-1.1 19.4-2.9 28.4-3 15.1 0-10.7 1.9-41.7 2.8-44 1.3-3.6 1.4 9.3.2 28.9zm-350.1-19.7c0 7.7-.2 9.3-1 7.3-1-2.3-.3-17 .7-17 .2 0 .4 4.4.3 9.7zm5.9.8c0 2.7-.3 6.1-.7 7.5-.7 2.3-.8 2.1-1.4-1.5-.9-5.4-.9-15 .1-15.9 1-1 2 3.8 2 9.9zm187.9-9.9c-.3.3-1.2.4-1.9.1-.8-.3-.5-.6.6-.6 1.1-.1 1.7.2 1.3.5zm43.3 1.4c0 .5-.4 1-1 1-.5 0-1-.5-1-1 0-.6.5-1 1-1 .6 0 1 .4 1 1zm92.7 5.2c-.2 1.3-.4.3-.4-2.2s.2-3.5.4-2.3c.2 1.3.2 3.3 0 4.5zm-174-3c-.3.8-.6.5-.6-.6-.1-1.1.2-1.7.5-1.3.3.3.4 1.2.1 1.9zm74.8-1.2c.3.5.1 1-.4 1-.6 0-1.1-.5-1.1-1 0-.6.2-1 .4-1 .3 0 .8.4 1.1 1zm89.2 2.7c-.3 1-.5.4-.5-1.2 0-1.7.2-2.4.5-1.8.2.7.2 2.1 0 3zm-293-1.5c1.9.2 2.4 6.2 1.2 16-.6 5.1-1.3 9.5-1.5 9.7-.2.2-.5-2.7-.5-6.5l-.2-6.9-.9 5c-.5 2.7-.8 9-.8 14 0 5.6-.3 8.5-.8 7.7-.6-.9-1.2.7-1.6 4.7-.4 3.4-.9 6.1-1.2 6.1-.3 0-1.2-.7-2-1.5-1.4-1.4-2.2-8.6-4-38.9l-.7-10.9 5.9.7c3.2.3 6.4.7 7.1.8zm19.9.1c.4.4-1.6.7-4.4.7-2.8 0-5.4-.4-5.7-1-.7-1.1 9-.8 10.1.3zm207.4-.3c0 .5-.4 1-1 1-.5 0-1-.5-1-1 0-.6.5-1 1-1 .6 0 1 .4 1 1zm36.3 1.2c.3 1.3.2 3.9-.3 5.8l-.8 3.5-.2-3.5-.2-3.5-.8 3c-.7 2.6-.8 2.2-.9-2.3-.1-3.8.3-5.2 1.3-5.2.8 0 1.6 1 1.9 2.2zm-237-.5c-.7.2-1.9.2-2.5 0-.7-.3-.2-.5 1.2-.5s1.9.2 1.3.5zm70.2.8c.6.2-1.8.4-5.3.4-3.5.1-6.1-.3-5.8-.8.5-.8 8.5-.5 11.1.4zm49-.4c-1.8.5-3.3.5-3.9-.1-.7-.7.4-1 3-.9 3.9.1 3.9.1.9 1zm6.8-.4c-.7.2-1.9.2-2.5 0-.7-.3-.2-.5 1.2-.5s1.9.2 1.3.5zm7 0c-.7.2-1.9.2-2.5 0-.7-.3-.2-.5 1.2-.5s1.9.2 1.3.5zm54.7.3c0 .5-.4 1-1 1-.5 0-1-.5-1-1 0-.6.5-1 1-1 .6 0 1 .4 1 1zm37 1.2c0 1.3-.3 5.4-.7 9.2-.5 5.5-.8 6.4-1.7 5-1-1.8-.9-14 .1-15.7.9-1.5 2.3-.6 2.3 1.5zm-217.7-.5c-.7.2-2.1.2-3 0-1-.3-.4-.5 1.2-.5 1.7 0 2.4.2 1.8.5zm14.2 1.3c3 .7 2.3.8-3 .4-3.8-.3-7.4-1-8-1.6-1-1.1 1.5-.8 11 1.2zm56.8-1.3c-.7.2-1.9.2-2.5 0-.7-.3-.2-.5 1.2-.5s1.9.2 1.3.5zm18.4-.1c-.3.3-1.2.4-1.9.1-.8-.3-.5-.6.6-.6 1.1-.1 1.7.2 1.3.5zm118.9 17.8c-.5 14.7-1 19.1-2.5 22.1-2.2 4.5-3.1 3.1-3.1-5 0-6.3-.7-8.5-2.6-8.5-1 0-1.4-1.3-1.4-4.5 0-2.5-.4-4.5-.9-4.5-.6 0-.7 2.5-.4 5.7.8 7.8-.6 6.2-1.6-1.8l-.8-6.4-.3 6.5-.3 6.5-.8-8.5c-.5-4.6-1.4-8.9-1.9-9.4-1.5-1.5-1.3-8.6.3-8.7 2.8-.1 10.2-1.1 10.6-1.5.2-.2 1.8-.4 3.4-.4h3l-.7 18.4zm-232.7-8.7c-.1 7.7-.2 8.2-1 4.3-1.1-6.4-1.1-13 .1-13 .6 0 .9 3.5.9 8.7zm7.7-8.1c2 .5 2 1.1 2.1 26.7 0 14.4-.2 25.6-.4 24.9-.4-1-1.1-.8-2.8.8l-2.2 2.1-.6-5.3c-.4-2.9-.7-9.6-.7-14.8-.1-5.2-.5-14.2-.9-19.9-1.1-15-.7-16.2 5.5-14.5zm180.4-.2c0 .2-.9.6-2 .9-1.1.3-1.8.1-1.4-.4.5-.9 3.4-1.3 3.4-.5zm3.7.2c-.3.3-1.2.4-1.9.1-.8-.3-.5-.6.6-.6 1.1-.1 1.7.2 1.3.5zm-140.4 1.1c-1.3.2-3.5.2-5 0-1.6-.2-.5-.4 2.2-.4 2.8 0 4 .2 2.8.4zm82.9.6c-1.1 1.3-14.6 1.6-15.9.3-.4-.4 2.5-.6 6.5-.5 4 .1 7.5-.1 7.9-.4 1.2-1.3 2.6-.7 1.5.6zm16.8-.3c0 .5-.5 1-1.1 1-.5 0-.7-.5-.4-1 .3-.6.8-1 1.1-1 .2 0 .4.4.4 1zm21.7 0c-1.6.5-3.8.5-5 0-1.7-.7-1-.9 2.8-.9 4.3.1 4.6.2 2.2.9zm4 .3c-.3.9.5 1.2 2.9.9 2.7-.3 3.4-.1 3.4 1.3 0 4.1-4.1 7.4-5.3 4.2-.3-.6-.6 1.7-.7 5.3-.2 6-.3 6.2-.9 2.3-.4-2.3-1.4-4.9-2.2-5.9-1.1-1.3-1.1-1.8-.1-2.1.6-.3 1.2-1.3 1.2-2.3 0-2.1 1-5 1.7-5 .3 0 .3.6 0 1.3zm29.3 19.7c0 13.9-.4 21-1 21s-1-.6-.9-1.3c.1-.6 0-5.9-.1-11.7l-.2-10.5-1.4 9.5c-.7 5.2-1.4 14.2-1.4 20-.2 12.2-1.7 10.2-1.9-2.5-.1-4.4-.7-10-1.3-12.5-1.2-5.1-1.4-10.8-.5-19.5.4-3.3.6-7.2.7-8.8 0-2 .5-2.7 1.9-2.7 1.1 0 2.3-.5 2.6-1 .3-.6 1.3-1 2.1-1 1.2 0 1.4 3.4 1.4 21zm-232.1-11.8c0 5.6-.3 7.6-.9 6.3-1.2-2.8-1.2-14.5 0-14.5.6 0 1 3.4.9 8.2zm49-5.5c0-1.5.6-2.7 1.2-2.7.8 0 1 1.5.5 4.6-.3 2.6-.6 6.1-.6 7.8 0 2.3-.3 2.7-1 1.6-.8-1.3-.9-1.3-1.4 0-.7 2.5-2.6 18.2-2.8 23.5 0 2.8-.3 3.8-.5 2.3-.6-4 1.4-37.5 2.3-39 .6-.9 1.1-.4 1.5 1.7l.7 3 .1-2.8zm50.4-2c-.7.2-1.9.2-2.5 0-.7-.3-.2-.5 1.2-.5s1.9.2 1.3.5zm30 0c-1.3.2-3.5.2-5 0-1.6-.2-.5-.4 2.2-.4 2.8 0 4 .2 2.8.4zm-66.4 2.5c.1-1.2.5-2.2 1.1-2.2 1.2 0 1.7 2.5 2.4 10.7.3 3.4.2 6.4-.2 6.7-.5.3-.7 6.9-.6 14.8.2 11.2.1 13-.6 8.3-.5-3.3-1-9.2-1.1-13-.2-6.7-1.5-12.8-2-9.5-.1.8-.5-1.7-.8-5.5-.3-3.9-.4-8.4-.2-10 .5-3 .5-3 1.2-.5.7 2.4.7 2.4.8.2zm23.9-1.3c1.1.6 1.2 2.6.7 8.5l-.7 7.7-2.3-1.5c-1.6-1.1-2.5-1.2-2.7-.4-.2.6-2.1 1.3-4.1 1.5-3.1.3-3.9 0-4.7-1.9-.5-1.5-.9-1.8-1.1-.8-.1.8-.5-1.7-.9-5.5-.4-3.9-.6-7.3-.3-7.8.6-1 14.5-.9 16.1.2zm23.9-.3c-.3.3-1.2.4-1.9.1-.8-.3-.5-.6.6-.6 1.1-.1 1.7.2 1.3.5zm109.4 4.4c.3-2.7.6-.5.6 5.5.1 5.5-.2 12.5-.6 15.5-.6 5-.7 4.5-1.4-6-.4-6.3-.6-13.5-.5-16l.1-4.5.7 5 .6 5 .5-4.5zm-125.1-1.3c0 4.8-1.1 7.2-3.1 7-1.6-.1-1.9-.9-1.9-4.9 0-4.5.2-4.8 2.5-4.8 2.1 0 2.5.5 2.5 2.7zm8 .3c.5-1.6.8.4.8 5.5 0 5.7-.3 7.1-.8 5l-.8-3-.2 3c-.2 1.8-.6.5-.9-3-.3-3.3-.4-7.1-.1-8.5.4-2.4.5-2.4.9.5.4 3 .4 3 1.1.5zm27.2 1.5c-.3 2.9-.6 3.3-1.6 2.1-.6-.8-2.4-1.6-4.1-1.8-1.8-.2-3.1-.9-3.3-2-.3-1.3.6-1.7 4-2 2.4-.2 4.6-.2 4.9-.1.3.1.3 1.8.1 3.8zm59.5 9.7c-.2 2.9-.3.8-.3-4.7s.1-7.9.3-5.3c.2 2.6.2 7.1 0 10zm-137-11c-.3.8-.6.5-.6-.6-.1-1.1.2-1.7.5-1.3.3.3.4 1.2.1 1.9zm61 0c-.3.8-.6.5-.6-.6-.1-1.1.2-1.7.5-1.3.3.3.4 1.2.1 1.9zm18.3 3.3l-.7 5-.2-4.6c0-2.5.2-4.9.6-5.2 1-1.1 1.1-.5.3 4.8zm14.8 8.5v10.5l-1.3-6.5c-1.5-7.2-1.9-16.3-.8-17.4 1.4-1.4 2.2 3.1 2.1 13.4zm11.9-4.8c-.2 1.8-.4.4-.4-3.2s.2-5 .4-3.3c.2 1.8.2 4.8 0 6.5zm17-3c-.2 1.3-.4.3-.4-2.2s.2-3.5.4-2.3c.2 1.3.2 3.3 0 4.5zm95-4c-.3.8-.6.5-.6-.6-.1-1.1.2-1.7.5-1.3.3.3.4 1.2.1 1.9zm-212 8c-.2 1.8-.4.4-.4-3.2s.2-5 .4-3.3c.2 1.8.2 4.8 0 6.5zm128.9 4.6c-1.1 1-1.2-.3-.7-6.3l.6-6 .3 5.9c.2 3.2.1 6.1-.2 6.4zm-53.9-3.1c-.3 1-.5.2-.5-1.7s.2-2.7.5-1.8c.2 1 .2 2.6 0 3.5zm131 .5c-.3.8-.6.5-.6-.6-.1-1.1.2-1.7.5-1.3.3.3.4 1.2.1 1.9zm16 5c-.2 1.3-.4.3-.4-2.2s.2-3.5.4-2.3c.2 1.3.2 3.3 0 4.5zM905 1532c0 .5-.2 1-.4 1-.3 0-.8-.5-1.1-1-.3-.6-.1-1 .4-1 .6 0 1.1.4 1.1 1zm-25.9 17.3c-1.3 1.3-1.4-.5-.3-5.4l.7-3.4.3 3.9c.2 2.1-.1 4.3-.7 4.9zm69.6-3.6c-.3 1-.5.2-.5-1.7s.2-2.7.5-1.8c.2 1 .2 2.6 0 3.5zm61 9.5c-.2 1.8-.4.4-.4-3.2s.2-5 .4-3.3c.2 1.8.2 4.8 0 6.5zm58 2.5c-.3 1-.5.4-.5-1.2 0-1.7.2-2.4.5-1.8.2.7.2 2.1 0 3zm132.3 23.4c0 2.8-.4 4.8-.9 4.5-.5-.4-1.2 0-1.5.6-.3.7-.3-1 0-3.7 1-8.2 2.4-9.1 2.4-1.4zm-253-.7c0 .8-.4 1.8-1 2.1-.5.3-1-.3-1-1.4 0-1.2.5-2.1 1-2.1.6 0 1 .6 1 1.4zm88 8.2c0 8.9-.9 10.4-5.9 10.4-1.9 0-2.1-.7-2.3-7-.1-3.9-.2-8-.2-9.2-.1-1.6.6-2.4 2.4-2.8 5.4-1.3 6-.5 6 8.6zm38.5 4.7c1.1.5.9 1.2-.8 3.2l-2.2 2.4-.5-9.2c-.7-11.2.2-13.8 1.3-4.2.5 4 1.4 7.3 2.2 7.8zm37.4-9.1c0 3.5-.2 3.9-.9 2.1-.8-1.9-.3-6.3.6-6.3.2 0 .4 1.9.3 4.2zm69.8-.5c-.3 1-.5.4-.5-1.2 0-1.7.2-2.4.5-1.8.2.7.2 2.1 0 3zm-329.7 1.2c-.1 1.6-1.9 3.3-2.9 2.7-1.2-.8-1.5-4.9-.4-6 .7-.7 3.3 2 3.3 3.3zm64.4-3.3c.9.3 1.6 1 1.6 1.5 0 1-3.1 1.2-5.5.3-1.3-.5-1.4-.8-.3-1.5 1.6-1 2.2-1.1 4.2-.3zm76.1 8.9c0 4.9-.1 9.3-.3 9.7-.2.5-5.5-1.6-7-2.8-.8-.5 3.3-5.3 4.6-5.4.7 0 1.2-1.5 1.2-4 0-2.6-.4-3.9-1.2-3.8-.6.2-1.4-.5-1.6-1.5-.3-1.5.1-1.8 2-1.5 2.2.3 2.3.6 2.3 9.3zm101.5-.1v8.2l6 1.2c5.1 1.1 6.4 1 8.9-.2 1.6-.9 3.1-2.1 3.4-2.8.3-.7.6 0 .6 1.7.1 5.3-.8 5.8-8 4.4-3.5-.6-7.8-1.2-9.5-1.1h-3.2v-10.4c0-6 .4-10.2.9-9.8.5.3.9 4.2.9 8.8zm37.2-8.2c.3.7 2.8 1.2 6.4 1.2 5.4.1 7.9 1 6.9 2.6-.2.3-3.1.5-6.4.4-5.9-.2-9.1-1.8-9.1-4.3 0-1.5 1.7-1.4 2.2.1zm82.8-.2c0 .5-.4 1-1 1-.5 0-1-.5-1-1 0-.6.5-1 1-1 .6 0 1 .4 1 1zm-257.5 3c.6.4 3.1.2 5.8-.5l4.7-1.2v7.3c0 4 .2 7.8.5 8.6 1.1 2.9-1.1 3.8-9.6 4.1l-8.4.2V1583.2l3 .5c1.7.3 3.5.9 4 1.3zm162.5.4c0 3-1.8 4.4-2.6 2.1-.6-1.3-.8-1.4-1.5-.3-.6.9-.9.7-.9-.9 0-2.1 1.1-3.1 3.8-3.2.6-.1 1.2 1 1.2 2.3zm33.4-1.6c.2.4.1 1.4-.4 2.2-.7 1.1-1.2 1.2-2.1.3-.6-.6-.8-1.6-.5-2.2.8-1.3 2.3-1.4 3-.3zm24.5 8.6c-.9.8-1 .3-.5-2.3.3-1.8.7-4.3.8-5.5.1-1.1.3-.1.5 2.3.3 2.6-.1 4.8-.8 5.5zm-165.9-2.6c0 2.3.4 3.1 1.2 2.6.8-.5.9-.2.5 1-.4 1-.7 3.4-.7 5.3 0 3-.2 3.4-1.5 2.3-1.1-.9-1.5-3.4-1.5-9.4 0-5.6.3-7.6 1-6.6.5.8 1 3 1 4.8zm126.6-1.5c8 2.8 9.1 2.9 9.7.5 1-3.8 1.9-1.2 1.2 3.3-.4 2.3-1 3.8-1.4 3.3-1-1.5-6.5-1-7.8.7-2.4 3.2-10.3-.6-10.3-5.1 0-1.9 1.9-4 3.6-4 .6 0 2.9.6 5 1.3zm29.8 3.2c5.5 1.8 4.3 3.5-2.3 3.2l-6.1-.2v-7.5l2.7 1.7c1.5 1 4 2.2 5.7 2.8zm-303-1.1c-.6 1.5-3.5 2.6-7.1 2.6-3.6 0-2.7-1.4 2-3.1 4.6-1.7 5.9-1.6 5.1.5zm318.3-.2c-.3.8-.6.5-.6-.6-.1-1.1.2-1.7.5-1.3.3.3.4 1.2.1 1.9zm-156.7 3c0 1.6-.3 1.9-1.1 1.1-.6-.6-.8-1.6-.5-2.2 1.1-1.7 1.6-1.3 1.6 1.1zm26.7 7c-.3.7-.5.2-.5-1.2s.2-1.9.5-1.3c.2.7.2 1.9 0 2.5zm-189.7-1.3c0 .5-.9.7-2 .4-1.1-.3-2-.7-2-.9 0-.2.9-.4 2-.4s2 .4 2 .9zm310-.5c0 .3-.4.8-1 1.1-.5.3-1 .1-1-.4 0-.6.5-1.1 1-1.1.6 0 1 .2 1 .4zm-40.9 2.2c1.2 1.4 1.1 1.6-.5 1.3-1.1-.2-2.1-1-2.4-1.7-.5-1.7 1.3-1.5 2.9.4zm44.6 6.6c-.3.8-.6.5-.6-.6-.1-1.1.2-1.7.5-1.3.3.3.4 1.2.1 1.9zm-3.3-.6c.9.3 1.6 1 1.6 1.4 0 1-3.8.1-4.6-1.1-.6-1 .7-1.2 3-.3zm29.6.8c-.4.4-1.6.4-2.6-.2-1.6-.9-1.4-1 .8-.9 1.5.1 2.3.6 1.8 1.1zm-19 1.6c0 .5-.2 1-.4 1-.3 0-.8-.5-1.1-1-.3-.6-.1-1 .4-1 .6 0 1.1.4 1.1 1zm5 0c0 .5-.8 1-1.7 1-1.5 0-1.6-.2-.3-1 1.9-1.2 2-1.2 2 0zm-280 1.5c0 .8-.4 1.5-1 1.5-.5 0-1-.7-1-1.5s.5-1.5 1-1.5c.6 0 1 .7 1 1.5zm238.5-.5c.3.6-.1.7-.9.4-1.8-.7-2.1-1.4-.7-1.4.6 0 1.3.4 1.6 1zm16.1 1.3c.4.3 1.6.2 2.6-.4 1.5-.8 2.3-.8 3.2.2.8.9.8 1-.2.5-.6-.4-1.9 0-2.8.8-1.4 1.5-4.5 2.1-8.6 1.8-1.1-.1-1.8.5-1.8 1.5 0 .9-.3 1.4-.6 1-.3-.3-.3-1.5.1-2.6.5-1.6 1.2-1.9 3.6-1.4 2 .4 2.9.1 2.9-.7 0-.7-.8-1-2-.7-1.1.3-2.2.1-2.5-.3-.6-.9 5.1-.7 6.1.3zm-36.1 3.7c-.4 1.2-.9 1.9-1.2 1.7-.3-.3-.2-1.5.2-2.7.4-1.2.9-1.9 1.2-1.7.3.3.2 1.5-.2 2.7zm60.4-1.4c-3.2 1-4.6 1-5.7.2-1-.9-1.9-.9-3.5.2-1.9 1.1-2 1.1-1-.1.7-.9 3.4-1.4 7.8-1.5h6.8l-4.4 1.2zm-323.3.9c1.8 1.3 1.7 1.4-1.8 1.5-5.5 0-5.9-1.8-.7-2.9.3 0 1.4.6 2.5 1.4zm-11.9 1c0 .8-.4 1.5-.9 1.5-1 0-1.1-1.4-.1-2.3.9-1 1-.9 1 .8zm181 2.1c.9 2.3-1.1 3.8-2.6 2-1.3-1.6-.7-3.6 1-3.6.5 0 1.2.7 1.6 1.6zm57.3.4c-1.5 1.2-1.8 1.8-.7 1.4 2.2-.8 2.4 2.1.1 3-2.3.9-3.6.7-3-.3.4-.5 0-1.1-.6-1.4-.8-.2.2-1.3 2.2-2.5 4.4-2.7 5.3-2.8 2-.2zm41-1.6c0 .2-.9.6-2 .9-1.1.3-2 .1-2-.4s.9-.9 2-.9 2 .2 2 .4zm41.5.6c-1.1.5-2.7.9-3.5.9-.9 0-.8-.4.5-.9 1.1-.5 2.7-.9 3.5-.9.9 0 .8.4-.5.9zm-308.4 2.5c4.1.7 7.5 1 7.7.5.3-.7 9.2 1.7 9.2 2.5 0 .1-3.2.3-7.1.4-5.6.1-8.6-.4-13.8-2.5-6.5-2.6-9.6-4.2-5.5-3 1.2.4 5.5 1.3 9.5 2.1zm101.4-1.5c-.3.5-1.4 1-2.3 1-1.5 0-1.5-.2-.2-1 2-1.3 3.3-1.3 2.5 0zm131.9.6c2.3 2.3 2 2.6-1.6 1.9-3.9-.9-4.2-1.1-3.3-2.4.9-1.6 3.1-1.3 4.9.5zM990 1620c0 1.1-.4 2-.9 2-1.1 0-2.2-2.6-1.4-3.4 1.2-1.2 2.3-.5 2.3 1.4zm30.5 4c.6.4 2.2 1 3.8 1.4 1.5.3 2.7 1 2.7 1.5 0 2.3-5.7 4.5-11 4.3-3-.2-9.5-.4-14.5-.5-4.9-.2-10-.6-11.2-1.1-2.3-.7-3.3-3.6-1.3-3.6.6 0 1 .6 1 1.4 0 .7.9 1.6 2.1 1.9 1.6.4 1.8.3.9-.8-1.3-1.5 2.1-3.5 12.3-7.1 2.6-.9 4.7-2.1 4.7-2.6 0-.7 6.6 2.6 10.5 5.2zm103.5-1.8c0 1.2-2.8 1-3.5-.2-.4-.6-.4-1.9 0-2.8.6-1.6.8-1.5 2.1.2.8 1.1 1.4 2.3 1.4 2.8zm26.9-3.9c-.2.1-1.3.9-2.4 1.7-1.9 1.4-1.9 1.4-.6-.3.7-.9 1.8-1.7 2.4-1.7.6 0 .8.1.6.3zm-201.7 3.5c.3 1 0 2.6-.7 3.6-1.1 1.5-1.3 1.2-1.7-1.9-.2-2-.2-3.8 0-4 .8-.7 1.9.4 2.4 2.3zm109.3-.8c5 2.3 3.4 2.5-2.8.4-4.5-1.5-4.8-1.5-8.9.8-2.3 1.2-4.1 2.7-4 3.2.3 1.3 21.5.7 22.4-.6.5-.9 1.1-.8 2.2.1 1.8 1.6 1.3 3-1.2 3-.9 0-8.1.4-16 .8-12.7.7-14.2.6-14.2-.8 0-2 2.4-4 8-6.7 5.4-2.6 9.2-2.7 14.5-.2zm-150.5.5c.7.9.8 1.5.2 1.5-.5 0-1.2-.7-1.6-1.5-.3-.8-.4-1.5-.2-1.5s.9.7 1.6 1.5zm22.4.6c2 1.2 3.6 2.5 3.6 3 0 .9-7 .5-12.7-.7-2.6-.5-3.1-2.4-.8-2.4.8 0 1.5.4 1.5 1 0 .5 1.5 1 3.3.9l3.2-.1-2.9-1c-2.1-.8-2.5-1.3-1.5-1.9 2-1.2 2.4-1.2 6.3 1.2zm42.7.9c2.7 1.6 4.9 2.7 4.9 2.4 0-.4.7-.1 1.5.6 2 1.7.9 3.3-1.5 2-1-.5-2.8-1-3.9-1-1.2 0-2.1-.5-2.1-1 0-.6-1-1-2.2-1-1.5 0-1.9-.3-1.1-.8.7-.5.9-1.3.3-2.1-.7-1.2-1.1-1.1-2.5.2-.9 1-2.1 1.7-2.7 1.7-2.1 0 1.4 2.9 4 3.3 1.5.2-1.4.5-6.4.6-7 .1-9.3-.2-9.7-1.3-.4-1 1.4-2.1 6.1-3.9 8.7-3.3 9.6-3.3 15.3.3zm223.3-1.7c-1 2.8-12.6 7.7-23.9 10.2-9 2-7.9 1 2.1-1.9 6.9-2 16.9-6.3 22.1-9.5.1 0 0 .5-.3 1.2zm-113.4 1.2c-1 1.2-.9 1.6.3 2.1.9.3 2.1.3 2.6 0 1.5-1 6.2.4 5.5 1.6-.7 1.1-10.4.1-11.7-1.2-.5-.4.2-1.5 1.4-2.4 2.9-2 3.5-2 1.9-.1zm62-1.1c0 .2-.7.7-1.6 1-.8.3-1.2.2-.9-.4.6-1 2.5-1.4 2.5-.6zm-38.6 1.5c.8 1.3-1.9 2.1-6.7 2.1-2.8 0-3.7-.3-2.8-.9 1.1-.7 1-1-.5-1.4-1-.2.7-.5 3.8-.6 3.1 0 5.9.3 6.2.8zm15.1 1.6c1.7 0 6.2-.3 10-.7 5.5-.6 6.5-.5 4.5.4-1.4.6-3.9 1.7-5.7 2.5-4.6 2-4.9 3-1.6 6.2 3.4 3.2 7.3 4.2 11.4 3.1 1.6-.5 2.9-.5 2.9-.1 0 1.3-6.4 3-13 3.6-13.3 1.1-18.5 1.6-20.2 2.1-.9.3-1.9.1-2.2-.5-.3-.5-1.5-.7-2.5-.4-2.5.6-3.7-1.5-1.9-3.3 1-1 4.4-1.7 10.4-2 9.6-.5 11.4-1.5 11.4-6.2 0-2.6-.4-2.7-18.9-.6-3.8.4-5.1.3-4.7-.5.4-.6 2.9-1.1 5.7-1.1 3.8 0 5.2-.4 6.1-2 .9-1.4 1.8-1.8 3.3-1.3 1.1.4 3.4.8 5 .8zm-225 .5c.8 1.3-3.5 1.3-5.5 0-1.1-.7-.7-1 1.7-1 1.7 0 3.5.4 3.8 1zm-32.1 1.6c.4 1 .1 1.4-.6 1.2-1.5-.5-2.3-2.8-1-2.8.5 0 1.3.7 1.6 1.6zm74.4 2.1c4.8.6 6.7 2.3 2.7 2.3-3.7 0-11.4-2.1-12.2-3.3-.4-.6.4-.8 2.3-.3 1.6.4 4.8.9 7.2 1.3zm93.2-.7c0 .5-.4 1-1 1-.5 0-1-.5-1-1 0-.6.5-1 1-1 .6 0 1 .4 1 1zm40 0c-2 1.3-3.3 1.3-2.5 0 .3-.6 1.4-1 2.3-1 1.5 0 1.5.2.2 1zm118 1.5c-.7.8-2.4 1.5-3.8 1.5s-3.4.8-4.4 1.7c-1.4 1.2-2.1 1.4-3 .5-.8-.8-.7-1.3.8-1.8 1-.3 3.5-1.2 5.4-1.9 4.9-1.9 6.6-1.9 5 0zm-314.2 5.1c6.9 1.1 11.2 2.5 11.2 3.4 0 .6.5 1 1.1 1 .5 0 .7-.5.4-1-.3-.6.1-1 .9-1s1.9.6 2.3 1.4c.4.7 1.5 1.6 2.3 1.9 2.2.8-8.8-.3-14.5-1.5-7.5-1.5-11.5-3.1-11.5-4.4 0-.7-.6-1.4-1.2-1.7-1-.3-1-.7-.1-1.7.8-.9 1.2-.7 1.8.9.3 1.2 1.1 2.1 1.6 2.1.6 0 .6-.7-.1-1.9-.5-1.1-1-2.3-1-2.8.1-.4.7.4 1.5 1.9 1.1 1.9 2.6 2.9 5.3 3.4zm329.6-4.7c.3.5-.1 1.2-1 1.5-2.2.9-2.4.8-2.4-.9 0-1.6 2.5-2.1 3.4-.6zM1066 1632c-1 1.9-5.6 3.8-6.6 2.7-.3-.3-.3-1.5.1-2.6.5-1.6 1.5-2.1 4.1-2.1 3.2 0 3.4.2 2.4 2zm-58.1.6c2.5 1.2 2.9 1.9 2.1 2.9-.6.8-1.3 2.7-1.5 4.3l-.4 2.9 4.5-1c3-.7 5.1-.7 6.6 0 1.3.6 4.9.8 8.1.5 3.8-.3 5.7-.1 5.7.7 0 .6-1.9 1.1-4.7 1.1-3.2 0-4.3.3-3.4.9.8.5 4.9.7 9.2.4 6.6-.3 7.8-.2 7.3 1.1-.4 1.2.5 1.4 5.3 1.1 3.2-.1 4 0 1.8.2s-4.3.7-4.7 1.1c-.9.9 32.1-.4 43.9-1.8 11.8-1.3 14.6-1.3 13.7.1-.5.8-.1.8 1.4 0 1.3-.7 3-.8 4.4-.2 1.3.4 2.9.6 3.6.4.7-.3 1.8 0 2.5.6.8.6 3.1.8 5.3.6 3.6-.5 3.7-.4 1 .5-1.7.5-5.4 1.1-8.3 1.2-2.9.2-5.3.6-5.3 1 0 1.3-5.8.9-6.2-.3-.7-2-28.7-1.7-50.8.6-1.9.2-8.7.7-15 1.1-6.3.4-11.7.8-11.9 1-.8.8 26.6.3 41.9-.6 33.5-2.1 35-2.1 35-1.2 0 1.2-14.3 2.7-15.9 1.7-1.5-.9-48.3 2.4-53.9 3.7-4.3 1.1-4.4 1.1-3.7 4.7.9 5.1 1.5 7.1 2.3 7.1.4 0 3.6.3 7.2.6s7.4.6 8.5.5c1.4 0 1.6.2.7.8-1 .6-.9 1.1.3 2.1 1.5 1.3 1.3 1.5-2.1 2.7-4.2 1.5-6 .9-2.3-.7 2.2-.9 2.1-1-.6-.3-1.6.3-5.9.7-9.5.7-5.5.1-6.5.4-6.8 1.9-.4 1.8.5 1.9 16.5 1.4 16.3-.5 16.8-.4 3.4.9-3.5.3-5.9 1-5.5 1.4.5.5 3.7.5 7.3 0 3.5-.5 10.9-1 16.4-1.1l10.1-.2.3 2.8c.3 1.9-.2 3.2-1.7 4.2-1.2.9-1.9 2.1-1.6 3.1.3 1 .1 2.4-.4 3.2-.7 1.1-1 1.1-1 .2 0-.8-.5-1-1.2-.6s.1-1.4 1.6-4.1l2.9-4.8-2.4.8c-1.3.4-3.4.7-4.6.7-1.3 0-2.1.4-1.8.8.9 1.4-2.3 3.1-6.4 3.4-2.9.2-4.1-.1-4.1-1 0-.8-1.9-1.5-4.7-1.9-2.7-.4-5.6-.9-6.5-1.2-3.1-.8-2.1 3 2.3 9.3 2.3 3.2 4.2 6.4 4.3 7.2.2.7.9 1.8 1.7 2.3.8.5 1 .9.6.9s.4 2 1.9 4.5c2.2 3.8 2.3 4.6 1.1 5.1-.9.3-1.4 1.1-1.1 1.8.2.6-1.1 4.4-3.1 8.4-1.9 4.1-3.3 7.7-3 8.2.6 1-2 3.2-2.8 2.4-.6-.6-1.6 1.3-3.1 6.3-.8 2.7.2 2.4 7.1-1.7 3.8-2.2 4.3-2.9 4.3-6.2 0-3.1-.3-3.6-2-3.3-1.7.3-1.8.1-.7-1.6.6-1 1.3-1.5 1.5-.9.2.6.8.8 1.3.4.5-.3.9-.2.8.3-.3 2 .2 3.4 1.1 2.8.6-.3 1 .3 1 1.3 0 1.2.9 2.2 2.3 2.5 3.3.8 10.9 3.6 12.9 4.7 1.9 1.1-1.8-5.6-7.9-14.1-3.3-4.7-4.1-6.5-2.3-5.4.6.3 1 .1 1-.5s.4-.8 1-.5c.6.4.7-.1.3-1.2-.6-1.6-.5-1.6 1-.4 1 .8 1.7.9 1.7.3 0-.6-.8-1.5-1.7-2.1-2-1.1-1.3-1.5 3.7-2.4 1.4-.2 3.3-.8 4.3-1.2 1.3-.5 1.7-.2 1.7 1.4 0 1.8-.6 2.1-3.7 2.1-4.8 0-3.4 1.3 1.7 1.6 4.4.2 5.8-.9 4-3.1-1-1.2-.9-1.5.9-1.5 1.1 0 2.1.4 2.1 1 0 .5.7 1 1.6 1 1.3 0 1.5.7.9 3.7-.4 2.1-1.1 4-1.6 4.4-.5.3 0 1.5 1.1 2.7 1.5 1.5 1.7 2.2.7 2.2-.7 0-1.7-.3-2-.7-.4-.3-2.4-.8-4.4-1-3.1-.3-3.4-.2-2.4 1.1.7.8 1.9 1.2 2.7.9.8-.3 2.5.2 3.8 1 2.2 1.5 2.5 1.5 4.1-.3 1.7-1.9 1.7-2.1.2-3.8-2-2.2-1.3-3.2 2.4-3.2 1.5 0 3.1-.5 3.4-1 .4-.6 1-.8 1.5-.5.4.3.6-.4.3-1.6-.4-1.4-1.2-1.9-2.4-1.6-1.2.3-1.6 0-1.2-.9.4-1-.3-1.4-2.1-1.4-1.6 0-2.6-.6-2.6-1.4 0-.8-.8-1.7-1.7-2-1-.3 2.1-.3 6.9-.1 5.1.3 8.9.1 9.3-.5.3-.5-.1-2.3-1-4-.9-1.7-1.3-3.4-1.1-3.9.3-.5-.6-2-1.9-3.5-2.7-3-10.5-14.1-10.5-15.1 0-.3.5-.3 1 0 .6.3 1 .2 1-.4 0-1.4 6.2.6 7.2 2.3.4.8 1.6 1.2 2.7.9 1.5-.4 2 .4 3 4.1 1.5 6 1.4 6.6-.9 6.6-2.5 0-2.5.7 0 4.8 1.2 1.9 1.6 3.1 1 2.7-1.2-.8-1.3.7-.1 2.1.5.5 1.2 1.9 1.6 3.1.4 1.7.3 2.1-.7 1.8-.9-.4-1.3.4-1.3 2.3 0 1.6.5 2.9 1.2 2.9.6 0 .9-.6.6-1.4-.3-.7 0-1.3.6-1.3s1.1 1.6 1.1 3.5c0 3.5-2 5.1-2 1.7-.1-1.5-.2-1.5-1.3-.2-1.7 2.1-5.3 4.8-4.3 3.2.4-.6.3-1.2-.3-1.2s-1.5 1-2.2 2.2c-1 1.8-.9 2 .5 1.5 1.5-.6 1.5-.4.2 2.1-3.1 5.7-7.6 11.7-7.6 10 0-.9.4-1.9 1-2.3.5-.3.6-1.3.3-2.2-.6-1.5-.7-1.4-1.4.3-.4 1-.8 2.9-.8 4.2-.1 1.9.4 2.3 2.2 2 1.2-.2 2.1-.9 1.9-1.6-.1-.8.1-1.1.6-.8.4.3 2.1-.6 3.7-2 1.5-1.3 3.4-2.4 4.2-2.4.8 0 1.2-.4.8-.9-.3-.5-.1-1.2.5-1.6.5-.3 1-.2 1 .3 0 1.2 5.4 3.8 12.3 5.8 3.1.9 5.7 2.1 5.7 2.6s.4.7.8.4c1.4-.9.1-8.6-1.5-8.6-.9 0-1.3-.6-1-1.4.3-.8 0-2-.8-2.6-1-.8-1.4-.8-1.7.1-.2.7-2.6-1.6-5.2-5-5.9-7.6-5.6-9.1.4-2 2.7 3.2 4.5 4.7 5 3.9.4-.6 2-.9 3.7-.6 2.4.5 3.2.1 4.2-1.7.6-1.2 1-1.5.8-.7-.2.8.3 2 1.1 2.6 1.1.8 1.2 1.5.3 3.2-.8 1.5-.8 2.8.1 4.9.6 1.5 1 3.4.9 4-.3 2 .5 1.6 6-3.2 3.9-3.6 5.4-4.3 6.4-3.5.7.6 1.9 1 2.7.9 2.6-.3 3.8.1 3.8 1.5 0 .8 1 1.8 2.3 2.2 1.2.4 2.5 1.2 2.9 1.8.5.8 1.1.7 2-.3 1-1 1-1.2.1-.7-.7.4-1.3.2-1.3-.4 0-.8.9-1 2.5-.6 4.1 1.1 4.2-2.8 0-10.7-3.8-7.5-4.2-8.5-2.1-6.8 1 .9 1.7.5 3.2-1.4 1.8-2.5 4.4-3.4 4.4-1.6 0 1.8-1.2 4.1-2 3.6-1-.6-.4 3 1.4 8.5 1.2 3.8 1.5 4.2 2.2 2.5.8-1.9.8-1.8 1.4.5.6 2.5.6 2.5 2-.7 1.7-3.8 4-5.1 4-2.4 0 1.4.6 1.8 2.3 1.5 1.2-.2.3.5-2 1.6-4 1.9-6.1 5.5-2.9 4.8.8-.2 1.5 0 1.5.4.2 2.4-.2 2.8-2.9 2.8-1.9 0-3-.5-3-1.4 0-.7-.8-1.6-1.9-1.9-1.2-.3-1.8.1-1.7 1 .3 3.7-10.1 7.6-23.2 8.6-4.7.4-6.6.1-7.7-1-.8-.8-1.5-1-1.5-.4s-.7.8-1.5.5c-1-.4-2.1.5-3.2 2.5-1 1.7-2.5 3.1-3.3 3.1-1.1-.1-1-.4.4-1.5 1.6-1.2 1.7-1.5.4-1.5-.8 0-2.8 1-4.3 2.1-1.7 1.4-2.9 1.8-3.4 1.1-.4-.7-3-.7-8.1-.2-4.1.5-8.3.9-9.4 1-1.2 0-1.6.5-1.2 1.5.4 1.2-.3 1.5-3.7 1.5-3.2 0-3.8-.3-2.7-1 1.1-.8.6-1-2-.8-2.7.2-3.5.7-3.4 2.1.1 1-.3 1.6-1 1.4-.6-.2-1-1.5-.9-2.8.1-1.3 0-1.8-.3-1.2-.3.7-1.8 1.3-3.2 1.4-2.4 0-2.5.1-.7.8 1.3.6-.1.9-4.3.9-6.2 0-10.3 1.1-4.6 1.3 2.5 0 2.6.2.9.9-1.1.5-6 .9-11 1-8.8.2-21 1.5-17 1.9 1.8.2 1.7.3-.4 1.2-1.4.5-3.2.7-4 .3-.9-.3-2.8-.8-4.3-1.1-2.2-.3-2.7-.1-2.2 1.1.4 1.1 0 1.6-1.5 1.6-1.2 0-2.1-.6-2.1-1.4 0-1.5-6.1-1.7-7.2-.1-.5.6-.8.5-.8-.3 0-.6-.5-1.2-1.1-1.2-.5 0-.7.4-.4 1 1.1 1.8-5.7 1.1-7.1-.8-1.3-1.6-1.5-1.6-2.8 0-1.6 2.2-2.6 2.3-2.6.3 0-1-1.7-1.5-6.7-1.8-6.4-.3-6.2-.3 2-.5 6.3-.1 9.3-.6 10.3-1.7 1.2-1.2 1.2-1.5.2-1.6-.7 0-2-.2-2.8-.4-7.9-1.6-9.1-1.7-8.8-.4.2.7-.5 1.5-1.5 1.7-1.5.3-1.8-.1-1.3-1.5.5-1.7-.2-1.8-12.2-1.5-7 .1-15.9.5-19.8.8-4.4.4-7.9.2-9-.5-1.6-.9-1.4-1 1.5-1.1 3.2 0 3.3-.1 1.8-1.8-1-1-1.5-2.1-1.2-2.3.9-.9-4-.2-7.2 1-1.9.8-3 1.8-2.7 2.6.7 1.7-1 2.7-3.1 1.9-1.3-.5-1.4-.8-.3-1.5 1.4-.9 1.4-.9-6.7-1.4-6.9-.5-10.9-1.3-14-2.9-1.6-.9-3.5-1.6-4.2-1.6-.6 0-1.4-.6-1.7-1.3-.3-.9-.8-.8-1.5.4-.9 1.4-1.8 1.5-5.8.7-9.2-1.7-13.5-3.1-12.2-3.8.7-.5.9-1.5.4-2.6s-.7-2.2-.7-2.7c.4-1.5-5.7-.6-7.9 1.3l-2.4 1.9 4.4.1c2.4 0 4.1.3 3.8.7-1.4 1.4-5.5 1-8.2-.7-2.2-1.4-3.4-1.6-5.4-.9-1.4.6-4.2.7-6.1.4-6.6-1.2-14-3.6-14-4.6 0-.6.9-.7 2.1-.4 1.2.4 1.9.3 1.6-.1-.3-.5.5-1 1.8-1 1.6-.1 2.5.5 2.8 1.8.3 1.1 1 1.7 1.5 1.4.6-.3 1.2-.2 1.4.4.1.5 1.8 1.2 3.6 1.6 2.9.6 3.2.4 2.5-1.2-.3-1.1-1.5-3-2.5-4.3-1.8-2.3-1.8-2.3-1.8-.2 0 1.1-.6 2.1-1.4 2.1-.9 0-1.2-.7-.9-2 .9-3.3 2.3-3.4 5.3-.5l2.9 2.8-.6-3.9c-.3-2.1-1-4.3-1.4-4.8-1.5-1.6-1-5.3.7-6 1.6-.6 3 .2 6.8 3.8 1.5 1.5 1.7 2.2.7 3.7-1.4 2.3-1.5 5.2-.1 4.4.6-.3 1 0 1 .7 0 1 1.9 1.4 7.3 1.5 6.1 0 7.8.5 11.5 2.9 2.3 1.5 4.2 3.1 4.2 3.5 0 .4.7.9 1.5 1.3 1.3.4 1.3.2.5-1.4-1.6-3-1.2-5 1-4.7 1.1.2 2.2.6 2.6.9.3.4 1.2.4 2 .1.8-.3 1.4.1 1.4 1 0 2.1 3.1 3 6.3 1.8 1.3-.5 3.3-.8 4.3-.7 1.1.2 1.3.1.7-.1-1.8-.6-1.6-2.3.2-2.3.7 0 1.9-.8 2.5-1.8 1-1.4 1.1-1.3.7 1-.4 2.4.2 2.9 7.9 6.2 9.5 4.1 9.8 4.2 9 2-.5-1.3-.2-1.5 1.3-1.1 1.9.5 1.9.4.4-1.9-1.8-2.8-1.7-3 2.1-4 2.7-.7 2.8-.6 2.1 2.5-.4 2.1-.3 3.1.5 3.1.7 0 1 .7.7 1.5-.7 1.7.9 3 1.8 1.5.3-.5 1.5-1 2.5-1s2.2-.5 2.6-1.1c.5-.8-.3-1-2.5-.7-3.3.5-3.8-.1-1.9-2 1-1 1-1.5-.1-2.2-1.3-.7-1.3-1.1 0-2.6.8-1 .9-1.5.4-1.2-.6.4-1.9 0-2.9-.7-1.9-1.4-1.7-1.5 4.8-.6.4 0 .5.8.2 1.7-.5 1.4-.4 1.5.8.5 1.6-1.3 3.2.1 2.1 1.9-.7 1.1-.4 1.1 6.2 1.4 3.9.1 4.3-.1 4.4-2.4 0-2.3.1-2.3.9-.5.8 1.8.9 1.8.9.2.1-1-.4-2.7-1-3.9-1.3-2.4-.1-4 1.2-1.5.6.9 1.4 1.5 2 1.2.5-.4 1.3.4 1.8 1.7.5 1.3 1.8 3.2 3 4.2 2.1 1.9 2.1 1.9 1.5.1-.5-1.2-.4-1.6.4-1.1s1 .1.5-1.1c-.6-1.6-.4-1.6 1.7.2 2 1.7 2.3 1.8 1.7.2-.5-1.4-.1-1.7 2.8-1.7 1.8 0 3.7-.5 4.1-1.2.4-.7.3-.8-.4-.4s-1.2.2-1.2-.3c0-.6-1.8-1.1-4-1.1-2.3 0-4 .5-4 1.1 0 .6-.8.1-1.8-1.1l-1.8-2.2.1 2.3c0 1.3.4 3 .9 3.8.7 1 .6 1.2-.3.6-1.1-.6-5.1-8.7-5.1-10.1 0-1.2 3.1-.2 3.7 1.2.3.8 1.2 1.3 1.9 1 .7-.3 1.7.2 2.2 1 .7 1.2 1.4 1.3 3.5.5 1.8-.7 2.7-.7 2.7-.1s.8.5 1.9-.2c1.8-1.1 2.3-4.9.8-6.5-1.2-1.2-.7-3.3 1.2-5.4 1.5-1.7 1.9-1.7 2.4-.5.3.8-.1 2-.9 2.6-1.7 1.5-1.8 3.7-.1 4.3 1.4.5 7.7-2.3 7.7-3.5 0-.4.5-.8 1-.8 1.2 0 1.3 4 .1 5.8-.4.8-1.2 1.3-1.7 1.3-.5-.1-.9.5-.9 1.1 0 .8 1 1.2 2.3 1.1 1.2-.2 2.2 0 2.2.4 0 1.2-4.2 9.3-5.1 9.9-.5.3-.9 1.4-.9 2.5s-.4 1.8-.8 1.5c-.4-.2-.8.4-.8 1.4 0 2.4 2.8 1.9 10-1.8 7.2-3.5 7.6-4.2 7.6-11.6 0-5.1.3-6.6 1.4-6.6.8 0 1.8.5 2.1 1 .4.6.1.9-.7.8-1-.2-1.3 1.5-1.3 6.9 0 6.6.2 7.3 2 7.3 1.1 0 4.4 1.4 7.3 3 3 1.6 4.9 2.3 4.2 1.5-.6-.8-.9-1.8-.6-2.3.3-.5-.3-2-1.3-3.3-2.6-3.4-6.1-10.5-6.1-12.6 0-1.5.1-1.5 1.4.2.8 1.1 1.2 2.3 1 2.7-.3.5.3.8 1.2.8 1.6 0 1.6-.1.1-1.8-1-1-1.7-2.6-1.7-3.5 0-.9-.7-1.7-1.5-1.7s-1.5.5-1.5 1.1c0 .8-.5.8-1.5-.1-2.1-1.8-1.9-3.3.5-2.7 1.1.3 1.8.1 1.4-.4-.8-1.3 1-1.1 2.5.3 1.1 1.1 1.2 1 .6-.1s-.4-1.3 1.1-.6c1 .4 3.3 1.3 5.1 1.9 2.3.8 3.3 1.8 3.7 4l.6 3 2-2.2c2.5-2.6 3-2.7 3-.6 0 .8-.4 1.2-1 .9-.5-.3-1 .1-1 .9 0 2.5 1.5 2.6 4.3.4 3-2.4 6-3.3 5.5-1.6-.2.6-1.2 1.2-2.2 1.4-2.5.4-2.8.9-3.1 4.9-.1 2.3.1 3.1.6 2.3.5-.7.9-2 .9-2.9 0-.9.7-1.9 1.5-2.2 1.7-.7 6.9-8.7 6.1-9.5-.4-.3-1.3.3-2.1 1.4-1.2 1.5-1.4 1.6-1.5.3 0-2.1-6.1-4-8.2-2.5-.8.6-1.7 1.5-1.9 2.1-.2.5-.7.9-1.1.8-.5-.2-.8.7-.8 1.9 0 4.7-1.2.6-1.3-4.6-.1-3.9.2-5.6 1-5.6.9 0 1.1 1.2.8 3.7-.4 3.4-.3 3.6.7 1.5 1.1-2.1 1.7-2.3 8.2-2 9 .4 10.2-.7 7.5-7-1.1-2.4-3.2-6.3-4.8-8.5-4.1-6-9.1-14.6-9.1-15.6 0-.5.5-1.1 1.2-1.3 2.8-1-.7-2.8-5.2-2.8-4.3 0-4.9.2-4.3 1.7.4 1 1.1 2.1 1.7 2.5.6.4.6 1.6-.2 3.4-.7 1.4-1.1 2.9-.8 3.1.2.2.8-.6 1.2-1.9.6-2.1.8-1.9 1.9 1.7.6 2.2.9 5.1.6 6.5-.5 2.1-.6 1.9-1.1-1.5l-.6-4-1.4 2.8c-.7 1.5-1.6 2.3-1.9 1.8-.4-.6-1.1-.7-1.7-.3-1.6 1.1-7.3 9.8-9.1 14-1.2 2.7-1.8 3.2-2.1 1.9-.2-1 .4-2.9 1.3-4.3.9-1.3 1.3-3 .9-3.6-.4-.7-.3-.8.4-.4s1.4-.3 1.7-1.7c.4-1.2 2.6-5.4 5-9.2 3.3-5.2 4-7.1 2.9-7.3-.8-.2-1.2-.7-.9-1.2.6-1-9.2 2.5-10.9 3.9-.7.6-1.6.8-1.9.4-.4-.3-.7.1-.7 1 0 2.3-1.7 2.1-3-.3-.6-1.1-1.5-1.8-2-1.5-.5.3-1.1.1-1.4-.4-.4-.5-3.2-1.7-6.3-2.6l-5.7-1.7 2.4-1.9c2.5-1.8 2.4-1.9-10.5-1.7-7.1.1-10.7.3-8 .5 6.1.5 8.6 2.3 3.1 2.3-2.2 0-3.5.4-3.1 1 .3.5-.1 1-1 1-1 0-1.3-.5-.9-1.2.5-.8 0-.9-1.4-.6-1.2.4-2.2.2-2.2-.4 0-2.1-3-3.7-7.6-4.1-2.7-.3 2.9-.4 12.3-.3 9.5.1 17 0 16.8-.2-.3-.3 0-1.1.6-1.8.7-.8.7-1.4-.1-1.9-1.8-1.1-1.1-3.3 1.4-3.9 3.6-.9 5.8.3 5 2.6-.5 1.7-.2 1.9 3.3 1.3 2.1-.4 4.3-1.3 4.9-2.1.6-.8 1.6-1.4 2.1-1.4.6 0 2.3-.7 3.9-1.4 1.5-.8 3.1-1.3 3.6-1 1.4.9.7-3-1.1-6.1-1.6-2.8-2.3-3.1-10.7-4.2-4.9-.6-14.1-1.2-20.5-1.2-13.9-.1-24-1.1-23.3-2.2.2-.5 4.4-.8 9.2-.7 19.5.2 32.9-.4 28.7-1.3-2.2-.4-6.7-.9-10-1-3.3-.1-7.3-.5-9-.8-2.7-.7-2.4-.8 2.5-1.4 3-.3 11.8-.9 19.4-1.2 15.5-.5 19.5-1.5 6.5-1.5-8.9 0-12.9-.7-12.9-2.1 0-.5.6-.6 1.3-.4.7.3 2.1-1.3 3.4-3.9 2.1-4.4 2.1-4.5.2-6.2-1-.9-1.9-2.1-1.9-2.6 0-1.4 5.5-.9 8.9.8zm141.4 1c-.8 2-2.2 1.7-2-.5 0-1 .7-1.7 1.3-1.4.7.3 1 1.1.7 1.9zm-3.3-1.2c0 .2-.9.6-2 .9-1.1.3-2 .1-2-.4s.9-.9 2-.9 2 .2 2 .4zm0 3.7c0 .5-.4.9-1 .9-.5 0-1-.7-1-1.6 0-.8.5-1.2 1-.9.6.3 1 1 1 1.6zm-280.9 1.5c5.6 1.6 8.6 3.4 5.7 3.4-.9 0-2.9-.7-4.4-1.5-1.6-.8-3.8-1.5-4.9-1.5-1.1 0-2.7-.5-3.5-1-2.4-1.5.7-1.3 7.1.6zm200.4 2.4c.9 1.6 2.3 3 3.3 3.1 1.2 0 .9.3-.8 1-2.7 1.1-7-.2-7-2.1 0-.6-.4-.9-.9-.6-.5.3-1.1-.5-1.3-1.9-.5-2.2-.2-2.5 2.3-2.5 2.2 0 3.2.7 4.4 3zm-45.7-.3c-1 .2-2.6.2-3.5 0-1-.3-.2-.5 1.7-.5s2.7.2 1.8.5zm131.4 2.6c-2 .4-4.3.6-5.2.3-.8-.2-.3-.4 1.1-.5 1.4 0 3.4-.7 4.5-1.5 1.4-1.1 2.1-1.1 2.6-.3s-.5 1.5-3 2zm-261.3 2.3c3.3 1.1 0 1.4-4.5.4-10.1-2.2-12.8-3.2-11.5-4 1.1-.6 8.3 1 16 3.6zm8.1-3.6c0 .5-.2 1-.4 1-.3 0-.8-.5-1.1-1-.3-.6-.1-1 .4-1 .6 0 1.1.4 1.1 1zm41.9-.1c.9.6-.2 1.2-3.8 2-2.9.6-6.2 1.1-7.3 1.1-3.3 0-1-1.8 3.7-2.9 5.3-1.2 5.8-1.2 7.4-.2zm195.1 1.1c-.8.5-2.6.9-4 .9l-2.5-.1 2.5-.8c1.4-.4 3.2-.8 4-.9 1.3-.1 1.3 0 0 .9zm-302 3c-1.1 2-3 2.8-3 1.2 0-1.1 2.2-3.2 3.2-3.2.5 0 .4.9-.2 2zm93.8.9c7.8.4 14.5 1.1 14.8 1.4 1.1 1.1-13.4 1.7-20.6.9-4.4-.5-8.6-.5-10.2 0-1.6.6-4.8.5-8.4-.1-6.4-1.2-6.9-1.5-6.1-3.3.4-1.1 2.2-1.2 8.3-.6 4.4.4 14.3 1.2 22.2 1.7zm187.7-.5c-2.7.7-5.4 1-5.9.7-1.6-.8 2.6-2 6.9-1.9h4l-5 1.2zm-253.1.2c.9.3 1.6 1 1.6 1.5 0 1.3-2.3 1-4.4-.6-1.6-1.2-1.7-1.5-.4-1.5.9 0 2.3.3 3.2.6zm33.1.4c.3.5-.1 1-1 1s-1.3-.5-1-1c.3-.6.8-1 1-1 .2 0 .7.4 1 1zm156.3-.3c-1.6.2-4 .2-5.5 0-1.6-.2-.3-.4 2.7-.4s4.3.2 2.8.4zm79.2 2.3c-1.4.4-3.6.8-5 .8h-2.5l2.5-.8c1.4-.4 3.6-.8 5-.8h2.5l-2.5.8zm-295.2 1.2c1.4 1.4-.2 4.8-2.3 4.8-1.9 0-2.5-1.2-1.8-3.8.6-2.4 2.3-2.8 4.1-1zm121.5.5c-1.3.2-3.3.2-4.5 0-1.3-.2-.3-.4 2.2-.4s3.5.2 2.3.4zm-36 1c-.7.2-1.9.2-2.5 0-.7-.3-.2-.5 1.2-.5s1.9.2 1.3.5zm39.2 4.3c.3.5.1 1-.4 1-.6 0-1.1-.5-1.1-1 0-.6.2-1 .4-1 .3 0 .8.4 1.1 1zm171.2 16.1c-3.2.5-7.5 1.3-9.5 1.9-2 .5-5.9 1-8.7 1.1-2.7.1-4.1.4-3.1.6 1.7.4 1.4.8-1.3 1.9-3.8 1.6-12.1 1.9-12.1.4 0-.6 1.5-1 3.3-1 2.2 0 2.8-.3 1.8-.9-2.4-1.6.9-2.5 9.9-2.8 4.7-.1 10.5-.7 13-1.2s6.3-.9 8.5-.9c3.3 0 2.9.2-1.8.9zm-75.9 2.6c-1 .2-2.6.2-3.5 0-1-.3-.2-.5 1.7-.5s2.7.2 1.8.5zm83.1 2.5c-.7 1.3-2.2 1.8-5.8 1.8-2.6 0-5.1-.3-5.5-.7-1-1.1 4.5-3 8.6-2.9 3.1.1 3.5.3 2.7 1.8zm10.1 1c0 2.1 0 2.1-1.5.2-1.4-1.9-1.5-1.8-2.1.4-.6 2.2-2.4 2.6-3.1.6-.4-1.1 3.2-3.2 5.5-3.3.6-.1 1.2.9 1.2 2.1zm-315.3 3c-.3.8-.6.5-.6-.6-.1-1.1.2-1.7.5-1.3.3.3.4 1.2.1 1.9zm261.3-1.6c-4.6 1.1-13 2-13 1.3 0-.4 1-1 2.3-1.2 2.7-.5 12.8-.6 10.7-.1zm22.7 1.6c-.3.8-.6.5-.6-.6-.1-1.1.2-1.7.5-1.3.3.3.4 1.2.1 1.9zm-199.2-.2c.3.5-.1 1-.9 1s-1.8-.5-2.1-1c-.3-.6.1-1 .9-1s1.8.4 2.1 1zm187.9.4c-.3.8-1.3 1.6-2.2 1.9-.9.3-2.6.8-3.7 1.2-1.6.6-1.5.3.5-1.3 1.3-1.1 2.8-1.8 3.2-1.6.3.2.9 0 1.3-.6.9-1.5 1.5-1.2.9.4zm32.1-.4c-.3.5-1.2 1-1.8 1-.7 0-.6-.4.3-1 1.9-1.2 2.3-1.2 1.5 0zm8.6 2.7c-1.2 2-1.4 1.4-.5-1.2.4-.9.9-1.4 1.1-1.1.3.2 0 1.3-.6 2.3zm22.9-1.7c0 .5-.2 1-.4 1-.3 0-.8-.5-1.1-1-.3-.6-.1-1 .4-1 .6 0 1.1.4 1.1 1zm-46 2c.6 1.1.8 2 .6 2-.3 0-1-.9-1.6-2-.6-1.1-.8-2-.6-2 .3 0 1 .9 1.6 2zm-47.3 7.7c-.9 14-2.4 22.4-3.6 20.5-.6-1-1.5-1-3.4-.3-2.9 1.1-3.2.5-2.9-4.4.1-1.5-.9-.8-4.3 2.8-4.3 4.7-6 5.3-3.2 1.2 3.3-4.8 7-11.8 5.9-11.1-1.6 1-1.5 0 .4-2.9.9-1.4 2-2.3 2.4-2 .5.3 2.2-.9 3.9-2.6 2.8-2.8 3.6-5.1 3.2-8.7-.1-.6.3-1.2 1-1.2.8 0 .9 2.5.6 8.7zm35.4-6.4c-1 .9-1.1.8-.5-.6.3-1 .9-1.5 1.2-1.2.3.3 0 1.1-.7 1.8zm-17.1.8c0 .5-.8.9-1.7.8-1.1 0-1.3-.3-.5-.6.6-.2.9-1 .6-1.5-.4-.7-.2-.8.4-.4.7.4 1.2 1.1 1.2 1.7zm-136.8 9.5c-.1.7.3 1.6.9 2 .8.5 1 .2.6-.8-.8-2.2 2.2-1.7 3.9.7 2.1 2.8 1.7 3.8-1.2 3.1-1.9-.5-2.4-.4-1.8.6.6 1 .3.9-.9-.1-2.2-1.8-9.7-13.2-9.7-14.8 0-.7 1.9.8 4.3 3.4 2.3 2.5 4.1 5.2 3.9 5.9zm26.8-9.4c0 .7-1.4 3.3-3 5.8s-3 3.8-3 3c0-.8-.9-.1-1.9 1.6-1.1 1.7-3.4 3.6-5.2 4.3-3.7 1.3-3.5 1.4-4.3-1.9-.3-1.4-.3-1.9 0-1.3.3.7 1 1.3 1.5 1.3.6 0 .7-.5.4-1-.4-.6-.4-2.3 0-3.9.5-2.4 1.8-3.4 7.3-5.9 7.7-3.5 8.2-3.7 8.2-2zm5.4 9.7c.1 4.2 0 6.7-.2 5.7-.2-1.1-.7-1.4-1.1-.8-.3.5-.7-2.9-.8-7.7-.2-6.7 0-8.2.9-6.7.6 1.1 1.2 5.4 1.2 9.5zm-63.7-9.3c-.3.3-1.2.4-1.9.1-.8-.3-.5-.6.6-.6 1.1-.1 1.7.2 1.3.5zm19.4 10l-.8 6.9-.1-9c-.1-6 .2-8.3.8-6.9.5 1.2.5 5.3.1 9zm47.7-9.4c-.3.7 1 3.5 2.7 6.3 1.8 2.7 3.7 6.1 4.4 7.5 1.2 2.4 1.1 2.4-.4.5-2.3-2.8-8.5-13.4-8.5-14.6 0-.5.5-.9 1.1-.9.6 0 .9.6.7 1.2zm39.2 2c0 1.9-.2 2-1 .8-1.3-1.9-1.3-3 0-3 .6 0 1 1 1 2.2zm-62.5-.2c-.3.5-1.3 1-2.1 1s-1.2-.5-.9-1c.3-.6 1.3-1 2.1-1s1.2.4.9 1zm-75.7 2.2c.2.9-.4 1.8-1.3 2.1-1.1.5-1.5 0-1.5-1.9 0-2.8 2.3-2.9 2.8-.2zm41.5-.1c-1 3.7-7.7 16.2-8.8 16.3-.5.1-1.1-2.9-1.3-6.6l-.3-6.7 4.8-2.4c6.1-3.1 6.2-3.1 5.6-.6zm29.3.3c.6.6.8 2.3.3 4.1l-.7 3-.2-3.5c-.1-2.7-.3-3.1-.9-1.6-.5 1.4-1 1.6-1.5.8-.4-.7-.4-1.8-.1-2.5.4-.6 0-.4-.8.6-1.1 1.4-1.7 1.5-2.3.6-.4-.7-.2-1.5.4-1.7.7-.2.9-.8.6-1.4-.9-1.3 3.7 0 5.2 1.6zm150.8 2.8c-.4 2.9-1 6.2-1.5 7.3-.7 1.9-.8 1.9-.8-.2-.1-2.7 1.9-12.3 2.5-12.3.3 0 .2 2.4-.2 5.2zm-78.2.3c1.6 2.7 2.5 5.2 2.1 6.2-.4 1.1-.3 1.4.5.9.7-.4 1.2-.1 1.2.6 0 .8-1 1.3-2.5 1.3-3.8-.2-3.9-.3-4.8-10.3-.1-1.7 0-3.2.3-3.2s1.7 2 3.2 4.5zm-115.8-1c-.4.8-1.4 1.5-2.3 1.5-1.4-.1-1.3-.3.3-1.5 2.5-1.9 2.7-1.9 2 0zm31.8 6.9c-.3.5-1.1.1-1.8-.9-1.2-1.6-1.4-1.7-2-.2-1.1 2.8-2.4.8-2.4-3.6v-4.2l3.4 4c1.9 2.2 3.2 4.4 2.8 4.9zm99-2.3c-.2 2.2-.8 3.9-1.3 3.9s-.9-.4-.9-1c0-.5-.6-.7-1.4-.4-.9.4-2-.6-3.1-2.5-1.6-3.1-1.2-3.6 2.1-3.2.7.1 1.4-.6 1.8-1.4 1.1-3 3.2.5 2.8 4.6zm52.5 1.8c-1.4 2.7-2.3 5.8-2.1 6.8.3 1-.2 2.7-1.1 3.8l-1.7 2 .7-2c.4-1.1.9-2.7 1.2-3.5.2-.8-.4-.5-1.5.7-2.5 2.9-2.9 2.9-2.9-.1 0-1.6.4-2.3 1.2-2 .8.3 2.6-1.8 4.6-5.5 4-7.2 5.1-7.4 1.6-.2zm-51 4.8c-.2 1.6-.4.5-.4-2.2 0-2.8.2-4 .4-2.8.2 1.3.2 3.5 0 5zm131.3-4.7c0 .4-.9 1-2 1.3-1.9.5-2.8-1.2-1.4-2.6.8-.7 3.4.3 3.4 1.3zm-188.1 2.6c1.2 1.9 1.6 3.2 1.1 2.9-1.1-.7-4.3-6.5-3.6-6.5.2 0 1.3 1.6 2.5 3.6zm15.1-2.6c0 .5-.2 1-.4 1-.3 0-.8-.5-1.1-1-.3-.6-.1-1 .4-1 .6 0 1.1.4 1.1 1zm83.7 3.2c-.3.7-.5.2-.5-1.2s.2-1.9.5-1.3c.2.7.2 1.9 0 2.5zm-259 0c-.3.8-.6.5-.6-.6-.1-1.1.2-1.7.5-1.3.3.3.4 1.2.1 1.9zm15.9 1.4c-.1 3.2-2.1 2.5-2.2-.8-.1-1.7.3-2.5 1.1-2.1.7.2 1.2 1.5 1.1 2.9zm159.8 2.1c.5 2 .3 3.4-.5 3.9s-1.1.2-.7-.7c.3-.8 0-2.3-.8-3.4-.8-1-1.4-2.7-1.4-3.8 0-2.9 2.6.1 3.4 4zm-63.6.3c-.1 2.2-.6 4-1 4s-.8-1.8-.8-4 .5-4 1-4c.6 0 1 1.7.8 4zm28.2-1.9c-.7 1.1-1.4 1.9-1.6 1.6-.7-.7.7-3.7 1.7-3.7.6 0 .5.9-.1 2.1zm-5.6 2.3c-.9 1.5-1.9 2.4-2.2 2.2-.2-.3.3-1.7 1.2-3.2 1-1.4 2-2.3 2.3-2.1.2.3-.3 1.7-1.3 3.1zm-8.9 4.1c2.2 5.3-.2 3-2.7-2.7-1.4-3.2-1.5-3.9-.4-2.8.8.8 2.2 3.3 3.1 5.5zm21.7-2.3c-.6.6-.7 0-.4-1.9.5-2.1.7-2.3 1-.9.2 1 0 2.2-.6 2.8zm53.1.8c.5 0 .6-.8.2-1.8-.5-1.4-.4-1.5.6-.5 1.5 1.5 3.3 1.7 2.4.3-.3-.5 0-.7.9-.4 1.5.6 3.1 3.5 1.8 3.3-.4-.1-1.5-.1-2.4 0-2.6.2-2.2 2.1.5 2.2 2.1.2 2.1.2-.2.6-2.6.5-7.2-3.7-7-6.6 0-1.1.4-.9 1.1.6.6 1.3 1.5 2.3 2.1 2.3zm-182.7.9c-.1 2.2-.7 4.5-1.3 5.3-.6.7-1.3 2.6-1.6 4.3-.4 1.6-.9 4.4-1.3 6.2-.6 3.3-4 5.1-5.8 3.3-.7-.7-.4-1 .7-1 1.5 0 3.7-5.2 3.7-8.8 0-.6.4-1.2.8-1.2 1 0 3.2-6 3.2-8.7 0-1.7.8-3.3 1.6-3.3.1 0 .1 1.8 0 3.9zm65.9-.9c1.9 3.8 1.9 3.8-.9 3.3-1.8-.4-2.3-1.2-2.4-3.4-.1-3.7 1.3-3.7 3.3.1zm241.4-.3c0 1.6-.3 2.2-.6 1.5-.4-1-.9-1-2.3.3-1.1 1-2 1.2-2.4.6-.5-.8 3.7-5.1 5-5.1.2 0 .4 1.2.3 2.7zm-316.9.4c0 .6-.4.7-1 .4-.5-.3-1-1.1-1-1.6 0-.6.5-.7 1-.4.6.3 1 1.1 1 1.6zm129.5-.2c-.3.6-1.1 1.1-1.7 1.1-.6 0-.6-.6.2-1.5 1.4-1.7 2.6-1.3 1.5.4zm14.2 1.8c-.3 1-.5.4-.5-1.2 0-1.7.2-2.4.5-1.8.2.7.2 2.1 0 3zm190.1 3.7c2.4 7.2 2.7 9 1.1 8.1-.6-.4-.8-1.3-.5-2.1.3-.8.2-1.4-.3-1.4-1.1 0-5.1-9.2-4.5-10.2 1.1-1.7 2-.5 4.2 5.6zm-57.3-3.4c0 2.3-4.9 2-5.3-.3-.3-1.5.2-1.8 2.5-1.5 1.7.2 2.8.9 2.8 1.8zm10.7.2c-.7.7-1.2.8-1.2.2 0-1.4 1.2-2.6 1.9-1.9.2.3-.1 1.1-.7 1.7zm76.1-1.2c.8 0 .7.4-.1 1.2-.9.9-1.6.8-3-.6-1.6-1.8-1.6-1.9.1-1.2 1 .3 2.4.6 3 .6zm-223.3 1c0 .5-.2 1-.4 1-.3 0-.8-.5-1.1-1-.3-.6-.1-1 .4-1 .6 0 1.1.4 1.1 1zm9 0c0 .5-.5 1-1.1 1-.5 0-.7-.5-.4-1 .3-.6.8-1 1.1-1 .2 0 .4.4.4 1zm112.7-.4c-.3.3-1.2.4-1.9.1-.8-.3-.5-.6.6-.6 1.1-.1 1.7.2 1.3.5zm-173.1 2.9c6.5-1.1 11.4-1.2 11.4-.1-.1 2-2.8 7.2-2.9 5.5-.1-1.3-1.3-1.8-4.8-2.1-6.1-.6-7.8-.1-6.2 1.8.7.8.9 1.7.7 2-.8.8-4.8-6-4.8-8.1 0-1.7.1-1.7 1.8-.1 1.2 1 2.9 1.4 4.8 1.1zm51.8.2c.9-.4 1.6-.2 1.6.3 0 .6-1.1 1-2.5 1s-2.5.4-2.5 1c0 .5.3.9.8.9 2-.3 3.2.3 3.2 1.6s-.4 1.4-2.2.4c-1.3-.7-3.4-1.4-4.8-1.6-11.7-1.5-14.3-3.1-4.4-2.7 5 .1 6.7-.1 7.1-1.3.4-1.1.8-1.2 1.3-.2.5.6 1.5.9 2.4.6zm33.6-.7c0 .5-.4 1-1 1-.5 0-1-.5-1-1 0-.6.5-1 1-1 .6 0 1 .4 1 1zm189 .9c0 .5-1.3 1.9-3 3.1-3.7 2.6-3.9 1.8-.4-1.5 3-2.7 3.4-2.9 3.4-1.6zm-261.3 4.3c-1 1.6-1.2 1.6-1.5.3-.2-.9-.1-2.4.3-3.3.5-1.3.8-1.4 1.5-.3.5.9.3 2.2-.3 3.3zm11.8-3.2c.3.6-.1.7-.9.4-1.8-.7-2.1-1.4-.7-1.4.6 0 1.3.4 1.6 1zm89.2-.4c-.3.3-1.2.4-1.9.1-.8-.3-.5-.6.6-.6 1.1-.1 1.7.2 1.3.5zm11.3 2.6c0 1.2-.3 1.8-.7 1.4-1.1-1-1.2-3.6-.2-3.6.5 0 .9 1 .9 2.2zm-97 .2c0 .8-.7 1.6-1.5 2-1.5.5-2.1-1.4-.8-2.7 1.1-1.2 2.3-.8 2.3.7zm34-.4c0 .5-.4 1-1 1-.5 0-1-.5-1-1 0-.6.5-1 1-1 .6 0 1 .4 1 1zm11.6 1.2l2.9 1.3-3.4 3.5c-2.7 2.8-2.9 2.9-1.2.6 1.1-1.6 2.1-3.4 2.1-4 0-.6-.7-.2-1.5.8-1.1 1.5-1.5 1.6-1.6.5 0-.8-.5-.2-1.1 1.3-.5 1.6-1.4 2.8-1.9 2.8-1.3 0-1.1-.7.7-3.5.9-1.3 1.3-2.9.9-3.5-.8-1.3.6-1.3 4.1.2zm-90.1.8c-.3.5-1.3 1-2.1 1s-1.4-.5-1.4-1c0-.6.9-1 2.1-1 1.1 0 1.7.4 1.4 1zm138 2c.2 1.3 1.5 3.4 2.7 4.7 1.7 1.8 1.8 2.3.5 1.7-.9-.3-1.7-1-1.7-1.5s-.6-.9-1.4-.9c-1.1 0-1.4 1-1.1 3.7.2 2.1-.2 1.1-.9-2.2-1-4.9-1.4-5.6-2-3.8-.4 1.3-1.2 2.3-1.7 2.3-1 0 1.9-5 3.5-6.2 1.3-.9 1.6-.6 2.1 2.2zm140.5-2.3c0 .4-1 1.8-2.2 3.1-2 2.2-2.1 2.4-.4 1.8 1.6-.5 1.7-.4.6.9-1.7 2-7.2 2.1-6.4 0 .3-.8 1.4-1.7 2.4-2 1-.3 2-1.5 2.3-2.5.5-1.8 3.7-2.9 3.7-1.3zm-71 2.4c0 .6-.4.7-1 .4-.5-.3-1-1.1-1-1.6 0-.6.5-.7 1-.4.6.3 1 1.1 1 1.6zm60.4-.6c-.4.8-.8 1.5-1 1.5-.2 0-.4-.7-.4-1.5s.4-1.5 1-1.5c.5 0 .7.7.4 1.5zm-241.7 5.7c-.7 2.1-1.8 3.8-2.4 3.8-.7 0-1.3 1-1.4 2.2 0 1.9-.3 1.7-1.2-.9-.7-1.8-1.8-3.8-2.6-4.5-1.1-1.1-1.3-.9-.8.9.8 3.4-2 3.7-3.8.3-1.7-3.2-2.1-6.6-.5-3.9 1 1.8 6 1.5 6-.3 0-.6 1.2-.8 2.6-.5 1.7.3 2.8 0 3.1-1 1.2-3.1 2.1.4 1 3.9zm6.1-2.7c-.6 1.3-1.5 2.2-1.9 1.9-.5-.3-.9.3-.9 1.3-.1 1.7-.1 1.6-1.2-.1-.7-1.3-.8-2.1-.1-2.3.6-.2 1.9-1 2.9-1.8 2.5-1.9 2.5-1.9 1.2 1zm12.4-.1c.7-.4.8-.2.4.5-.4.6-1.2.9-1.7.6-.7-.5-.7 1.5 0 4.3.1.1 1-.2 2.1-.8 1.1-.6 2-.9 2-.6 0 .2.2 1.1.5 1.8.4 1-.3 1.4-2.2 1.3-3.8 0-5.5-1.5-3.9-3.5 1-1.3.9-1.3-.6-.1-1 .7-1.8 2.1-1.8 2.9 0 1.4-.2 1.4-1.7-.1-1.7-1.7-1.6-1.9 1.7-4.7 1.9-1.6 3.7-2.5 3.8-1.9.2.5.9.6 1.4.3zm-97.8 1.2c.3.8.2 1.2-.4.9-.6-.3-1-.1-1 .4 0 .6-.9 1.1-2 1.1-1.9 0-1.9-.1-.2-1.9 2.1-2.4 2.8-2.5 3.6-.5zm231.3 3.1c-.3 1-.5.2-.5-1.7s.2-2.7.5-1.8c.2 1 .2 2.6 0 3.5zm88.8-3.7c-.3.5-.1 1.9.5 3 1.3 2.4-.2 2.7-2.4.4-1.8-1.7-2.1-2.8-.6-1.9.6.3 1-.1 1-.9 0-.9.5-1.6 1.1-1.6.5 0 .7.4.4 1zm-229.5 1c0 .5-.7 1-1.5 1s-1.5-.5-1.5-1c0-.6.7-1 1.5-1s1.5.4 1.5 1zm166.9 6.2c-1.8 3.2-2.4.1-.8-3.8 1.2-2.7 1.3-2.7 1.6-.7.3 1.2-.1 3.2-.8 4.5zm-189.9.1c0 .5-.6.6-1.2.3-.7-.3-2.1-.9-3-1.2-1-.4-1.8-1.5-1.8-2.5 0-1.9.2-1.8 3 .3 1.7 1.2 3 2.6 3 3.1zm70.5-1.4c-.8 1.7-1.9 3.3-2.5 3.6-.5.3-.1-1 1.1-2.9 2.5-4.3 3.6-4.8 1.4-.7zm175 0c-1.1 1.9-7.7 4.2-8.9 3.1-.7-.5-2.2-.7-3.4-.3-1.4.3-2.2.1-2.2-.7 0-.6.6-1 1.3-.7.6.2 2.3 0 3.6-.5 1.7-.6 2.7-.5 3.3.4.6 1 .8 1 .8 0 0-.6.7-1.2 1.5-1.2.9 0 1.8-.7 2.2-1.6.4-1 .9-1.2 1.5-.6s.7 1.5.3 2.1zm-232 .1c.3.5.1 1-.4 1-.6 0-1.1-.5-1.1-1 0-.6.2-1 .4-1 .3 0 .8.4 1.1 1zm196.9 2.1c-.6 1.1-2.4.2-2.4-1.1 0-.5.7-.7 1.5-.4.8.4 1.2 1 .9 1.5zm-30.3 1.6c1.3 1.6 1.2 1.7-.3.4-1-.7-1.8-1.5-1.8-1.7 0-.8.8-.3 2.1 1.3zm86.3 1.2c.7 1-2.3 2-4.3 1.3-1.1-.4-1.1-.6 0-1.3 1.8-1.1 3.6-1.1 4.3 0zm-2.9 3.1c.4.6-.6 1-2.2 1-2.2 0-2.5-.2-1.3-1 1.9-1.2 2.7-1.2 3.5 0zm-36.7 5.7c-1 .2-2.8.2-4 0-1.3-.2-.5-.4 1.7-.4 2.2-.1 3.2.1 2.3.4zm-7.8 1.3c0 .5-.2 1-.4 1-.3 0-.8-.5-1.1-1-.3-.6-.1-1 .4-1 .6 0 1.1.4 1.1 1zm13.5 2c-.3.5-1.9 1-3.6 1-1.6 0-2.9-.5-2.9-1 0-.6 1.6-1 3.6-1 2.1 0 3.3.4 2.9 1zm-241.8 1.6c-.3.3-1.2.4-1.9.1-.8-.3-.5-.6.6-.6 1.1-.1 1.7.2 1.3.5zm18.8 1.4c.3.5-.1 1-1 1s-1.3-.5-1-1c.3-.6.8-1 1-1 .2 0 .7.4 1 1zm217.8-.3c-.7.2-1.9.2-2.5 0-.7-.3-.2-.5 1.2-.5s1.9.2 1.3.5zm-4.6.9c-.3.3-1.2.4-1.9.1-.8-.3-.5-.6.6-.6 1.1-.1 1.7.2 1.3.5zM993 1752c0 .5-.4 1-1 1-.5 0-1-.5-1-1 0-.6.5-1 1-1 .6 0 1 .4 1 1zm-54 1c0 .5-.7.7-1.5.4-.8-.4-1.5-.8-1.5-1 0-.2.7-.4 1.5-.4s1.5.4 1.5 1zm142.3-.3c-.7.2-1.9.2-2.5 0-.7-.3-.2-.5 1.2-.5s1.9.2 1.3.5zm-16.6.9c-.3.3-1.2.4-1.9.1-.8-.3-.5-.6.6-.6 1.1-.1 1.7.2 1.3.5zm-24.2 4.4c-.3.5-1 1-1.6 1-.5 0-.9-.5-.9-1 0-.6.7-1 1.6-1 .8 0 1.2.4.9 1zm-22.6 14.4c1.3.7 1.9 1.6 1.3 2-.5.3-2.1-.3-3.3-1.4-2.7-2.2-1.6-2.6 2-.6zm8.1.8c0 .4-1.2.8-2.6.8-1.4 0-2.3-.4-2-.8.2-.4 1.4-.8 2.5-.8 1.2 0 2.1.4 2.1.8zm6.8 2.5c-1 .2-2.8.2-4 0-1.3-.2-.5-.4 1.7-.4 2.2-.1 3.2.1 2.3.4zm-14 2.1c.2.7-.6 1.2-1.7 1.2-2.1 0-2.7-1.1-1.4-2.4.9-.9 2.6-.2 3.1 1.2zm6.5-.8c.8 0 .8.3.1 1-1.2 1.2-4.4.3-4.4-1.2 0-.6.7-.7 1.6-.4.9.3 2.1.6 2.7.6zm-4.8 5c.3.5-.1 1-.9 1s-1.8-.5-2.1-1c-.3-.6.1-1 .9-1s1.8.4 2.1 1zm-11.5 5c0 .5-.4 1-.9 1-.6 0-1.3-.5-1.6-1-.3-.6.1-1 .9-1 .9 0 1.6.4 1.6 1z"/><path d="M1251.5 411c-.3.5-.1 1 .4 1 .6 0 1.1-.5 1.1-1 0-.6-.2-1-.4-1-.3 0-.8.4-1.1 1zM993.8 1260.7c.6.2 1.8.2 2.5 0 .6-.3.1-.5-1.3-.5-1.4 0-1.9.2-1.2.5zM1016.2 1398c0 1.4.2 1.9.5 1.2.2-.6.2-1.8 0-2.5-.3-.6-.5-.1-.5 1.3zM1014.2 1411c0 1.4.2 1.9.5 1.2.2-.6.2-1.8 0-2.5-.3-.6-.5-.1-.5 1.3zM966 1420.5c0 3.8.5 7.7 1 8.5.7 1 1-.6 1-5.5 0-3.9-.5-7.7-1-8.5-.7-1-1 .6-1 5.5zM970.2 1423c0 1.4.2 1.9.5 1.2.2-.6.2-1.8 0-2.5-.3-.6-.5-.1-.5 1.3zM975 1448.5c0 2.8 1.5 3.4 2.4.9 1-2.5.7-3.4-.9-3.4-.9 0-1.5.9-1.5 2.5zM981.5 1483c-.3.5-.2 1 .4 1 .5 0 1.3-.5 1.6-1 .3-.6.2-1-.4-1-.5 0-1.3.4-1.6 1zM1001.3 1624.2c-2.8 1.4-3 2.8-.3 2.8 1 0 2.4-.9 3-2 1.2-2.2.6-2.4-2.7-.8zM1011 1624.5c0 1.1 1.1 1.5 4.3 1.5 4.1-.1 4.2-.1 1.7-1.5-3.3-1.9-6-1.9-6 0zM1011.5 1642.9c-1.7.4-4 1.3-5 1.9-1.6.9-.4 1.1 6.3 1.2 4.6 0 8.2-.4 8.2-1 0-.5-.6-.7-1.4-.4-.7.3-1.6-.2-1.9-1-.7-1.7-1.5-1.8-6.2-.7zM995 1678c-1.2.8-1.1 1 .8 1 1.2 0 2.2.4 2.2.9 0 1.2 5 1.8 8 1 2-.6 1.7-.7-1.6-.8-2.4-.1-4.7-.7-5.4-1.6-1.5-1.7-2-1.8-4-.5zM1057.7 1682.1c-1.6.4-3.5.5-4.3.2-.8-.3-1.4 0-1.4.6s-1 1.1-2.2 1.1c-1.9 0-2-.2-.8-1 1.1-.7.6-1-2.2-1-5.5 0-5.5 1.7 0 2.4 4.1.5 14.8-.7 15.9-1.8.9-.9-2.5-1.2-5-.5zM1082 1685.3c0 .4 1.1 2.4 2.4 4.3 1.6 2.4 2.6 3.2 3.1 2.3.5-.7.1-1.7-.8-2.4s-1.5-1.5-1.2-1.8c.3-.4.2-.5-.2-.2-.3.3-1.2-.3-1.9-1.3-.7-.9-1.4-1.3-1.4-.9zM1055.5 1687c-1.3.5-1.4.9-.5.9.8 0 2.4-.4 3.5-.9 1.3-.5 1.4-.9.5-.9-.8 0-2.4.4-3.5.9zM1090.6 1692.7c-.6 1.4-.5 1.5.5.6.7-.7 1-1.5.7-1.8-.3-.3-.9.2-1.2 1.2zM870.6 1719.8c-.3.5.1 2.8.8 5 .8 2.2 1.2 4.3.8 4.7-.3.3.2.3 1.1-.1 1.3-.5 1.5-1 .8-1.7-1.4-1.4-1.4-4 0-3.1.8.5.8.1 0-1.2-2.2-3.9-2.9-4.6-3.5-3.6zM1059 1721.4c0 .9 6.9 10.6 7.5 10.6.2 0-.2-1-.8-2.3-1.6-3.1-6.7-9.4-6.7-8.3zM1084.5 1724c-.3.5-.2 1 .4 1 .5 0 1.3-.5 1.6-1 .3-.6.2-1-.4-1-.5 0-1.3.4-1.6 1zM990 1725.5c0 .8.9 1.5 2 1.5 1.3 0 1.8-.5 1.4-1.5-.4-.8-1.2-1.5-2-1.5s-1.4.7-1.4 1.5zM1023.6 1726.4c.3 1.3.1 2.7-.5 3.1-2.3 1.3.1 2.3 4.5 1.9 2.5-.3 5.1-.1 5.7.4.8.6 1.8.2 3-1 1.7-1.8 1.6-1.8-1-1.4-4.4.8-9.7-.7-10.1-2.8-.3-1.5.1-1.8 1.7-1.3 1.2.3 2.1.1 2.1-.4s-1.4-.9-3-.9c-2.7 0-3 .3-2.4 2.4zM1114 1729.5c.7.9 1.5 1.3 1.7 1.1.7-.7-.7-2.6-1.9-2.6-.6 0-.6.6.2 1.5zM992.5 1731c.3.5.8 1 1.1 1 .2 0 .4-.5.4-1 0-.6-.5-1-1.1-1-.5 0-.7.4-.4 1zM1028.5 1734c-.3.5-.1 1 .4 1 .6 0 1.1-.5 1.1-1 0-.6-.2-1-.4-1-.3 0-.8.4-1.1 1zM1074.1 1735.4c.7 1.5 1.5 2.3 1.7 1.6.3-.7-.3-1.9-1.3-2.8-1.5-1.6-1.6-1.5-.4 1.2zM1132.5 1736c.3.5.8 1 1.1 1 .2 0 .4-.5.4-1 0-.6-.5-1-1.1-1-.5 0-.7.4-.4 1zM1141 1735.6c0 1.7 1.7 3.6 2.4 2.6.3-.5-.1-1.5-.9-2.2-.8-.7-1.5-.9-1.5-.4zM1069.7 1737.7c.4 1 .8 1.1 1.3.3.4-.7 1.3.1 2.3 2.2.9 1.8 1.7 2.6 1.6 1.8 0-.8-.6-2.4-1.4-3.4-1.8-2.4-4.6-3.1-3.8-.9zM1094.6 1736.9c-.3.5.1 1.1.9 1.5.8.3 1.5.1 1.5-.5s.5-.7 1.2-.3c.7.4.8.3.4-.4-.9-1.4-3.3-1.6-4-.3zM981.6 1739.4c.3.9 1.1 1.6 1.6 1.6 1.3 0 .5-2.3-1-2.8-.7-.2-1 .2-.6 1.2zM1055.5 1741c-.3.5.1 1 .9 1 .9 0 1.6-.5 1.6-1 0-.6-.4-1-.9-1-.6 0-1.3.4-1.6 1zM1097.8 1740.7c1.2.2 3 .2 4 0 .9-.3-.1-.5-2.3-.4-2.2 0-3 .2-1.7.4zM979.5 1742c-.3.5.1 1 1 1s1.3-.5 1-1c-.3-.6-.8-1-1-1-.2 0-.7.4-1 1zM1059.4 1742.4c-.3.8-1.3 1.2-2.4.9-1-.3-2.7 0-3.7.7-1.6 1-1.6 1.1 0 .6.9-.3 2.8-.1 4.2.4 1.8.7 2.8.5 3.9-.5.8-.8 2.1-1.5 2.8-1.6.7 0 .4-.4-.7-.9-2.9-1.2-3.5-1.2-4.1.4zM1075 1745.9c0 .5.6 1.1 1.3 1.3 1.7.7 3.8-.2 3.1-1.3-.7-1.2-4.4-1.2-4.4 0zM1082 1749c0 .5.5 1 1 1 .6 0 1-.5 1-1 0-.6-.4-1-1-1-.5 0-1 .4-1 1zM952.8 1749.7c.6.2 1.8.2 2.5 0 .6-.3.1-.5-1.3-.5-1.4 0-1.9.2-1.2.5zM1004.3 1752.7c.9.2 2.3.2 3 0 .6-.3-.1-.5-1.8-.5-1.6 0-2.2.2-1.2.5zM1042 1753c-1.1.7.6 1 5.9 1 4.1 0 7.2-.2 6.9-.5-1.1-1.1-11.3-1.5-12.8-.5zM1008.8 1754.7c.7.3 1.6.2 1.9-.1.4-.3-.2-.6-1.3-.5-1.1 0-1.4.3-.6.6zM1034.8 1692.5c-.6.6 1.4 7.5 2.2 7.5.3 0 .6-.9.6-2s-.4-2-.9-2c-.4 0-.5-.5-.2-1 .3-.6.1-1-.5-1s-.8-.5-.5-1c.6-1 .2-1.4-.7-.5z"/></svg>