<svg version="1" xmlns="http://www.w3.org/2000/svg" width="341.333" height="341.333" viewBox="0 0 256.000000 256.000000"><path d="M82.5 69c0 5.9.4 8.3 1.5 9 .8.5 1.8.6 2.2.4.4-.3.8.6.8 2 0 1.9-.4 2.4-2 2.1-1.1-.2-2 0-2 .5 0 .4-.3 1.5-.6 2.4-.5 1.2 0 1.6 2 1.6 2.5 0 2.6.2 2.6 5.4 0 3-.3 6.2-.6 7.1-.4.9-5.5 4-11.5 7-5.9 3-11.5 6.5-12.3 7.7-1.3 1.8-1.6 5.1-1.6 16.6 0 20.7 2.8 42 7.6 58.9l1.5 5.3h63.8l1-3.8c.6-2 1.7-6.2 2.5-9.2l1.5-5.5v7.7c.1 11.1-.9 10.7 28.4 10.7 29.6 0 27.7 1 27.7-15.2 0-13.4-.7-14.7-8.3-14.7H182v-11.3c0-14.9.2-14.7-15.3-14.7-14.8 0-14.7-.1-14.7 15.2V165h-4.8c-2.6 0-5.3.5-6 1.2-1 1-1.1.6-.7-1.7 1.5-8.4 2.2-17.2 2.4-31.7.2-13 0-16.4-1.3-18.3-.9-1.3-6.2-4.7-11.8-7.6-5.7-2.8-10.9-5.6-11.5-6.1-.8-.7-1.3-3.5-1.3-7.4 0-5.6.2-6.4 1.9-6.4 1 0 2.2-.8 2.5-1.7.8-1.9-1-3.4-3.1-2.6-.9.3-1.3-.3-1.3-2.1 0-1.6.5-2.6 1.3-2.5 2.9.4 3.2-.4 3.1-7.4-.1-3.9-.2-7.8-.3-8.5-.1-.9-4.7-1.2-19.4-1.2H82.4l.1 8zm34.5.6V74H87v-8.9l15 .1 15 .1v4.3zM95.5 80c.1.8-.4 1.8-1 2.2-2 1.5-3.5.8-3.5-1.6 0-1.8.5-2.3 2.3-2.2 1.2.1 2.2.8 2.2 1.6zm8.5.3c0 1.6-.6 2.3-2 2.4-1.5.1-2-.4-2-2.3 0-1.7.5-2.4 2-2.4 1.4 0 2 .7 2 2.3zm9-.3c0 2.4-2.9 3.8-4 2-1.2-1.9-.1-4 2.1-4 1.2 0 1.9.7 1.9 2zm0 14.3c0 8.8.6 9.5 12.5 15.5 4.4 2.3 7.8 4.2 7.5 4.3-4.2 1.3-18.4 2.7-29.2 2.8-13.1.2-30.5-1.3-32-2.8-.5-.4 2.9-2.5 7.3-4.6 10.6-5.2 11.9-6.9 11.9-15.6V87h22v7.3zm-36.5 25.2c13.2 2.6 43.2 2.3 55-.5 7.8-1.8 7.5-2.2 7.5 9.5V139H65v-10.5c0-12.1-1-11.4 11.5-9zm55.3 67.4c.1 0-.2 1-.8 2-.9 1.9-2.4 1.9-29.4 1.9H73.2l-.4-2.3-.5-2.2 29.6.2c16.3.1 29.7.3 29.9.4z"/></svg>